<svg preserveAspectRatio="none" width="100%" height="100%" overflow="visible" style="display: block;" viewBox="0 0 910 31" fill="none" xmlns="http://www.w3.org/2000/svg">
<path id="Union" d="M326.077 2.94055C326.847 2.94055 328.067 3.23407 328.709 3.69013C329.158 4.01588 329.287 4.30919 329.287 4.8304C329.287 5.28684 329.03 6.8502 328.902 8.44607C331.887 8.12031 336.316 7.63187 337.054 7.63187C338.434 7.63196 339.14 8.47849 339.14 9.52073C339.14 10.498 338.626 10.824 337.567 10.824C335.834 10.824 332.688 10.433 328.805 10.661C328.773 12.1269 328.773 13.5932 328.741 14.9288C329.64 15.841 330.154 17.3069 330.154 19.5545C330.154 25.2877 326.045 29.132 320.204 30.9563C319.691 31.1191 319.594 30.7934 320.044 30.5328C323.478 28.4479 325.66 26.0044 326.527 23.04C323.67 24.0172 321.327 22.0948 321.327 18.4789C321.327 15.6125 323.093 13.7885 325.468 13.7885C325.789 13.7886 326.077 13.8206 326.366 13.8532C326.334 12.9738 326.334 11.8341 326.334 10.8897C324.023 11.1828 321.745 11.6385 320.076 12.0945C317.701 12.7135 315.903 13.2676 314.876 13.2676C313.271 13.2675 311.988 11.1501 311.988 9.19565C311.988 8.80474 312.084 8.77177 312.405 8.9998C313.368 9.71645 314.234 9.94423 315.165 9.94423C317.508 9.94423 322.547 9.1954 326.27 8.73934C326.206 7.33858 326.142 6.68681 326.013 6.03529C325.885 5.48156 325.66 5.22074 324.89 4.89502C324.344 4.63441 323.863 4.43916 323.863 4.08082C323.863 3.55964 325.178 2.9406 326.077 2.94055ZM201.853 30.663H191.647V28.1866H199.254V7.98976H201.853V30.663ZM582.48 26.6884C582.48 28.415 582.062 29.262 580.971 29.653C579.815 30.1088 577.954 30.1736 574.97 30.1411C574.841 29.3919 574.424 28.1872 574.039 27.438C576.157 27.5357 578.307 27.5027 578.917 27.5026C579.527 27.4701 579.751 27.2748 579.751 26.6884V20.5646H571.664V29.979H568.872V20.5646H561.297C560.784 24.1478 559.66 27.8288 557.253 30.5C556.836 29.9462 555.744 29.0341 555.135 28.6757C558.633 24.669 558.955 18.9357 558.955 14.3751V2.7457H582.48V26.6884ZM905.506 21.346C908.01 21.346 910 23.3661 910 25.9071C910 28.4478 908.01 30.5 905.506 30.5C903.003 30.4999 900.981 28.4478 900.981 25.9071C900.981 23.3662 903.003 21.346 905.506 21.346ZM502.731 22.8769C502.41 22.5513 502.602 22.2585 503.083 22.356C506.614 23.0726 510.689 25.2876 510.69 28.6101C510.69 29.685 510.016 30.4024 508.989 30.4025C508.091 30.4025 507.609 29.9788 507.127 28.969C506.197 27.0796 505.17 25.0921 502.731 22.8769ZM885.203 2.28939C885.973 2.2894 887.193 2.58199 887.835 3.03797C888.284 3.36366 888.413 3.65725 888.413 4.17825C888.413 4.63431 888.156 6.19869 888.028 7.79491C891.013 7.46915 895.442 6.97972 896.18 6.97972C897.56 6.97987 898.266 7.82724 898.266 8.86957C898.266 9.84677 897.752 10.1729 896.693 10.1729C894.96 10.1729 891.814 9.78181 887.931 10.0098C887.899 11.4755 887.899 12.9412 887.867 14.2767C888.766 15.1887 889.279 16.6549 889.28 18.9024C889.28 24.6357 885.17 28.4799 879.329 30.3041C878.816 30.4668 878.72 30.1412 879.17 29.8806C882.603 27.7959 884.786 25.353 885.653 22.3888C882.796 23.3661 880.453 21.4436 880.453 17.8277C880.453 14.9613 882.218 13.1376 884.593 13.1374C884.914 13.1374 885.203 13.1694 885.492 13.202C885.46 12.3225 885.46 11.1822 885.46 10.2375C883.149 10.5307 880.87 10.9873 879.201 11.4434C876.826 12.0623 875.029 12.6154 874.002 12.6155C872.397 12.6155 871.113 10.498 871.113 8.54349C871.114 8.15282 871.21 8.12066 871.531 8.34864C872.493 9.06514 873.36 9.29307 874.291 9.29307C876.634 9.29304 881.673 8.54423 885.396 8.08818C885.332 6.68752 885.267 6.0356 885.138 5.38413C885.01 4.83044 884.786 4.56954 884.016 4.24386C883.47 3.98333 882.989 3.78779 882.988 3.42966C882.988 2.90845 884.304 2.28939 885.203 2.28939ZM527.501 6.88229H530.807V9.52073H527.501V15.0919L530.518 14.1464L530.871 16.6874L527.501 17.8277V27.1776C527.501 28.6432 527.212 29.3597 526.345 29.7832C525.543 30.2391 524.291 30.3369 522.238 30.3369C522.173 29.653 521.821 28.5131 521.468 27.7313C522.816 27.7964 524.003 27.7957 524.388 27.7631C524.741 27.763 524.934 27.6331 524.934 27.1776V18.6419L521.339 19.7822L520.665 17.0781L524.934 15.8404V9.52073H521.146V6.88229H524.934V0.497959H527.501V6.88229ZM162.587 7.3386H166.887V10.0098H162.587V10.8897C163.774 12.0625 166.951 15.7095 167.69 16.6546L166.021 19.0654C165.314 17.8926 163.838 15.8405 162.587 14.1792V30.2723H159.826V15.4826C158.511 19.0333 156.841 22.421 155.044 24.5709C154.755 23.724 154.081 22.5835 153.568 21.8669C155.943 19.1631 158.254 14.3749 159.441 10.0098H154.595V7.3386H159.826V0.465153H162.587V7.3386ZM820.7 2.06074C820.379 1.37718 820.411 1.34452 821.213 1.53981C823.01 1.9307 824.391 3.33148 824.391 4.89502C824.391 6.42601 822.208 10.3676 822.208 12.7457C822.208 13.3646 822.465 13.3651 822.69 12.8113C824.038 9.52119 825.995 6.29582 829.012 6.29575C831.997 6.32833 834.083 9.19532 834.083 14.7658C834.083 22.7143 829.975 27.8284 822.754 30.1739C821.951 30.4344 821.824 30.1415 822.562 29.653C828.146 26.1674 830.906 21.7367 830.906 14.733C830.906 11.0195 830.104 8.47891 828.338 8.47887C826.06 8.47887 823.524 13.2675 823.524 16.6228C823.524 18.0886 823.909 19.5223 823.909 20.4343C823.909 21.3787 823.524 21.835 822.818 21.9653C822.176 22.063 821.471 21.7042 821.053 21.0527C820.379 20.0103 819.865 18.0233 819.833 15.8733C819.801 12.5831 820.828 8.05461 821.085 6.26295C821.277 4.73207 821.309 3.42879 820.7 2.06074ZM180.11 7.3386H183.352V10.0098H180.11V26.6228C180.11 28.4797 179.725 29.2615 178.569 29.7176C177.446 30.1736 175.553 30.2395 172.825 30.2395C172.664 29.4577 172.215 28.2196 171.83 27.4052C173.82 27.4704 175.874 27.438 176.452 27.438C177.029 27.4054 177.222 27.2419 177.222 26.6556V13.9188C174.75 18.349 171.252 22.6817 167.85 25.2877C167.401 24.5385 166.598 23.5607 165.892 22.9744C169.872 20.2706 173.98 15.0263 176.355 10.0098H167.978V7.3386H177.222V0.529772H180.11V7.3386ZM541.976 16.4598H550.032V18.9352H543.516C545.281 21.8995 548.202 24.799 550.962 26.2649C550.352 26.7536 549.551 27.731 549.134 28.3824C546.534 26.7211 543.837 23.8544 541.976 20.7922V30.1093H539.344V20.7266C537.322 23.9842 534.369 26.8513 531.352 28.5127C530.967 27.8286 530.133 26.8192 529.523 26.3306C532.668 24.8646 535.781 21.9973 537.707 18.9352H531.385V16.4598H539.344V12.9744H541.976V16.4598ZM369.508 30.0765H366.619V27.9589H350.412V30.0765H347.619V2.41962H369.508V30.0765ZM135.499 2.97336C135.755 7.2409 137.392 22.0303 149.492 27.6985C148.658 28.3174 147.823 29.2619 147.374 30.0436C139.478 26.1672 135.884 18.4145 134.247 11.9971C132.738 18.3493 129.4 25.6786 121.729 30.0436C121.248 29.3271 120.317 28.4804 119.451 27.8615C132.385 20.988 132.257 5.70958 132.482 1.40958H135.595L135.499 2.97336ZM803.196 1.47519C804.929 1.57298 806.437 2.51757 807.143 3.42966C807.721 4.14631 807.689 4.70031 806.886 5.84044C805.538 7.82751 801.944 10.9544 800.179 13.3322C799.633 14.0815 799.345 14.766 799.345 15.2221C799.345 15.8082 799.697 16.3293 800.339 16.9479C802.072 18.707 805.859 22.2908 807.175 24.734C807.881 26.1022 808.17 26.9168 808.17 27.9918C808.17 29.1317 807.432 29.979 806.373 29.979C805.346 29.979 804.801 29.0009 804.03 27.0463C802.779 23.789 800.307 20.5319 798.382 18.4471C797.323 17.3071 796.841 16.3948 796.841 15.5154C796.841 14.4078 797.483 13.1047 799.056 11.0199C801.399 7.86003 803.613 5.25339 803.613 3.91778C803.613 3.23378 803.388 2.6471 802.842 1.93051C802.586 1.53995 802.618 1.44263 803.196 1.47519ZM255.573 26.0373C255.573 26.9491 255.861 27.1119 257.626 27.1119H263.307C264.784 27.1119 265.04 26.5906 265.233 23.04C265.811 23.496 266.998 23.9518 267.736 24.1146C267.416 28.5775 266.548 29.653 263.499 29.653H257.37C253.743 29.653 252.78 28.8706 252.78 26.0691V19.9124H255.573V26.0373ZM63.1135 26.1019C63.1135 26.9814 63.4343 27.1119 65.2634 27.1119H71.2655C72.774 27.1119 72.9984 26.688 73.1588 23.3979C73.7686 23.8539 74.9241 24.245 75.6623 24.4079C75.3414 28.6426 74.5072 29.6201 71.4585 29.6201H65.0714C61.3484 29.6201 60.3857 28.9036 60.3857 26.1347V21.1829H63.1135V26.1019ZM389.281 1.83308C390.051 1.83308 390.854 2.06152 391.464 2.45243C391.913 2.74562 391.977 3.20211 391.688 4.0162C391.528 4.37472 391.206 5.22123 390.693 6.42599C391.271 6.19796 391.72 5.97005 392.105 5.74202C392.811 5.31858 393.357 4.96063 393.903 4.96063C394.577 4.96068 394.929 5.38378 394.962 6.00248C394.962 6.75173 394.448 7.24089 393.614 7.7621C392.715 8.28331 391.078 8.83679 389.409 9.26026C388.542 11.1496 387.548 12.7133 386.585 14.3095C387.548 13.6581 388.447 13.365 389.506 13.365C391.046 13.3651 392.201 13.984 392.586 15.5472C395.026 11.4101 397.915 9.78119 400.579 9.78119C404.334 9.78149 405.97 14.3097 402.44 15.743C399.519 16.9157 395.186 18.3488 392.779 19.4889C392.811 20.8895 392.844 22.4206 392.844 23.0072C392.844 24.1472 392.33 25.0599 391.432 25.0601C390.629 25.0601 390.243 24.408 390.243 23.3004C390.243 22.8443 390.276 21.932 390.34 20.8897C388.832 21.9321 387.483 23.2681 387.483 24.6037C387.483 26.4605 389.185 26.7859 391.592 26.7859C393.775 26.7858 396.342 25.8742 397.273 25.8742C398.204 25.8744 398.941 26.3307 398.941 27.1776C398.941 27.9591 398.396 28.5128 397.465 28.806C396.342 29.1968 393.999 29.5873 391.912 29.5873C387.772 29.5873 385.238 28.2521 385.237 25.3205C385.237 22.9751 387.195 20.8252 390.436 18.7403C390.469 18.1214 390.469 17.5342 390.469 17.0781C390.469 15.6454 389.763 15.1238 388.832 15.1237C387.259 15.1237 385.045 17.4697 383.825 19.131C382.862 20.4341 382.027 21.7695 381.129 21.7695C380.391 21.7693 379.877 21.0204 379.877 20.0108C379.877 18.9359 381.513 17.4697 382.476 16.3296C383.921 14.5379 385.622 12.0622 386.842 9.74938C385.622 9.91223 384.307 9.94423 383.568 9.814C381.996 9.58597 381.193 8.28311 381.193 6.32856C381.193 5.70978 381.385 5.70975 381.802 6.03529C382.797 6.84969 383.504 7.01315 384.531 7.24118C385.398 7.40394 386.681 7.33791 388.029 7.10995C388.35 6.36083 388.574 5.74178 388.703 5.15548C388.895 4.211 388.703 3.91773 388.029 3.49428C387.516 3.1362 387.227 2.94078 387.227 2.71289C387.227 2.38717 388.35 1.83319 389.281 1.83308ZM739.791 1.83308C740.562 1.83308 741.365 2.06152 741.975 2.45243C742.424 2.74562 742.488 3.20206 742.199 4.0162C742.038 4.37475 741.717 5.22125 741.204 6.42599C741.781 6.19795 742.231 5.97005 742.616 5.74202C743.322 5.31856 743.868 4.96063 744.413 4.96063C745.087 4.96063 745.44 5.38374 745.472 6.00248C745.472 6.75173 744.959 7.24089 744.124 7.7621C743.226 8.28329 741.589 8.8368 739.92 9.26026C739.053 11.1496 738.059 12.7133 737.096 14.3095C738.059 13.658 738.958 13.365 740.017 13.365C741.557 13.3651 742.713 13.9838 743.098 15.5472C745.537 11.4104 748.426 9.78119 751.089 9.78119C754.844 9.78139 756.481 14.3097 752.95 15.743C750.03 16.9157 745.697 18.3488 743.29 19.4889C743.322 20.8895 743.355 22.4206 743.355 23.0072C743.355 24.1473 742.841 25.06 741.942 25.0601C741.14 25.0601 740.754 24.408 740.754 23.3004C740.754 22.8443 740.787 21.932 740.851 20.8897C739.343 21.9321 737.994 23.2681 737.994 24.6037C737.994 26.4605 739.696 26.7859 742.103 26.7859C744.285 26.7858 746.853 25.8742 747.784 25.8742C748.714 25.8744 749.453 26.3307 749.453 27.1776C749.453 27.9591 748.906 28.5128 747.976 28.806C746.852 29.1968 744.509 29.5873 742.423 29.5873C738.283 29.5873 735.748 28.2521 735.748 25.3205C735.748 22.9751 737.706 20.8251 740.947 18.7403C740.979 18.1214 740.979 17.5342 740.979 17.0781C740.979 15.6453 740.273 15.1238 739.343 15.1237C737.77 15.1237 735.555 17.4697 734.336 19.131C733.373 20.4341 732.538 21.7695 731.639 21.7695C730.901 21.7692 730.388 21.0203 730.388 20.0108C730.388 18.9358 732.025 17.4697 732.988 16.3296C734.432 14.538 736.133 12.0621 737.353 9.74938C736.133 9.91223 734.817 9.94425 734.079 9.814C732.506 9.58597 731.704 8.28311 731.704 6.32856C731.704 5.70982 731.896 5.70981 732.313 6.03529C733.308 6.84969 734.015 7.01315 735.042 7.24118C735.908 7.40396 737.192 7.3379 738.54 7.10995C738.861 6.36081 739.086 5.74179 739.214 5.15548C739.407 4.21114 739.213 3.9177 738.54 3.49428C738.027 3.13624 737.738 2.94077 737.737 2.71289C737.737 2.38718 738.861 1.83324 739.791 1.83308ZM286.667 1.99612C287.405 1.93097 288.143 2.02825 288.946 2.35401C290.101 2.87523 291.096 3.75529 291.096 4.66736C291.096 5.54686 290.646 6.36138 290.389 7.3386C290.229 7.92488 290.004 8.54373 289.844 9.26026C289.908 9.29282 290.004 9.35819 290.101 9.4233C290.807 9.94452 290.935 10.6942 290.389 11.3132C290.036 11.7367 289.587 12.4207 289.138 13.1046C289.106 13.2674 289.106 13.4627 289.074 13.6255C292.412 11.2476 295.3 10.0099 298.285 10.0098C303.003 10.0098 306.116 13.4956 306.116 17.4698C306.115 23.9196 300.114 27.1441 294.305 28.3168C293.503 28.5123 293.407 28.1545 294.145 27.8287C298.734 25.7439 302.714 22.812 302.714 17.6001C302.714 13.8538 300.531 11.9971 297.29 11.9971C294.594 11.9972 291.834 13.5279 289.042 15.8733C289.106 20.0755 289.652 23.6267 289.652 25.9071C289.652 27.8614 288.849 29.3925 287.758 29.3925C286.827 29.3924 286.635 28.6101 286.41 27.5026C286.089 25.7762 285.254 24.1796 284.259 22.4206C283.425 23.7562 282.783 24.8641 282.622 25.1247C282.109 25.9389 281.596 26.3622 281.05 26.3624C280.344 26.3624 279.83 25.809 279.766 24.897C279.67 24.0501 280.087 23.3986 280.761 22.519C281.692 21.3137 284.934 17.0458 286.988 14.0162C287.02 13.3648 287.084 12.6157 287.18 11.8341C286.153 12.3228 284.356 13.2349 283.65 13.6583C282.944 14.0492 282.59 14.5699 282.077 14.5699C281.21 14.5697 279.927 13.2016 279.927 11.8987C279.927 11.3454 280.055 11.313 280.536 11.4106C281.306 11.5409 281.692 11.5077 282.591 11.1819C283.65 10.8234 285.993 9.84658 287.405 9.13003C287.533 7.50128 287.629 5.96986 287.629 5.15548C287.629 4.04814 287.34 3.39673 286.506 2.54985C286.121 2.12646 286.153 2.0287 286.667 1.99612ZM855.162 2.02893C855.932 2.02893 857.088 2.22433 857.666 2.58266C858.404 3.00611 858.468 3.36454 858.179 4.4069C858.05 4.96076 857.794 5.97068 857.537 7.3386C860.04 6.68713 861.1 6.13303 862.062 6.16552C863.378 6.16552 864.116 6.752 864.116 7.43603C864.148 8.25037 863.25 8.60892 861.581 8.9998C860.041 9.39071 858.724 9.68408 857.088 10.0098C856.927 11.3454 856.799 12.8766 856.735 14.5053C857.954 14.2122 858.885 13.8538 859.398 13.5281C859.944 13.2349 860.073 12.9413 860.041 12.4852C860.009 12.0293 859.944 11.6705 859.848 11.1819C859.784 10.7914 859.848 10.7266 860.297 10.9871C861.613 11.8013 862.896 12.7131 862.897 13.4297C862.897 14.4069 862.19 14.9288 861.195 15.4826C860.425 15.906 858.821 16.6224 856.735 17.1109C856.767 18.8048 856.896 20.6943 857.024 22.1602C859.72 22.8443 862.159 24.2127 863.442 25.9717C864.052 26.851 863.828 27.828 863.25 28.1866C862.673 28.6101 861.837 28.4471 861.195 27.8933C859.88 26.7208 858.628 25.6131 857.152 24.8314C856.992 27.9587 854.905 29.2941 851.567 29.2941C848.679 29.2941 846.721 27.7306 846.721 25.8086C846.721 23.1376 849.514 21.7048 853.397 21.7048C853.782 21.7049 854.167 21.7369 854.552 21.7695C854.52 20.5316 854.52 18.8375 854.488 17.5344C853.654 17.6648 852.755 17.7303 851.824 17.7303C848.326 17.7303 847.106 16.818 847.588 14.3423C847.716 13.5279 847.813 13.4957 848.294 14.1146C848.936 14.9938 849.674 15.2539 850.989 15.2539C852.241 15.2539 853.429 15.1571 854.52 14.9616C854.52 13.4957 854.585 11.9641 854.649 10.5308C851.504 11.1497 847.78 11.801 845.791 11.7685C844.218 11.7033 842.806 9.9772 842.774 8.18561C842.774 7.8599 842.838 7.82697 843.126 7.98976C844.539 8.83673 845.405 9.06465 846.593 9.09723C848.454 9.16238 851.728 8.64127 854.745 7.98976C854.809 6.62168 854.873 5.61175 854.873 5.18829C854.905 4.27629 854.809 4.08125 854.039 3.72293C853.365 3.42975 853.108 3.29888 853.204 2.94055C853.397 2.41939 854.392 2.02895 855.162 2.02893ZM46.5528 16.5572H39.7161V20.0755H46.97V22.6493H39.7161V26.7212H48.0288V29.2623H27.4562V26.7212H36.9237V22.6493H29.8304V20.0755H36.9237V16.5572H30.184V1.96331H46.5528V16.5572ZM710.96 3.00616C712.661 3.00626 714.747 4.01591 714.747 5.09086C714.746 5.84019 713.944 7.56692 713.816 12.3878C718.117 12.909 721.936 14.8639 721.936 17.6329C721.936 18.5774 721.358 19.4243 720.267 19.4243C719.336 19.424 718.726 18.5439 718.052 17.5016C717.089 15.9708 715.773 14.7659 713.784 13.9516C713.816 20.4337 714.073 25.678 714.073 27.0791C714.073 28.4473 713.431 29.132 712.436 29.132C711.313 29.132 710.478 28.0241 710.478 26.1347C710.478 25.0272 710.735 22.91 710.799 21.672C710.928 19.8479 711.121 16.916 711.121 14.1146C711.121 11.248 711.121 8.77146 710.992 6.84949C710.928 5.7422 710.51 5.2534 709.323 4.50432C708.714 4.11344 708.681 4.04869 709.291 3.5927C709.869 3.16922 710.35 3.00616 710.96 3.00616ZM905.506 22.8123C903.805 22.8123 902.457 24.2131 902.457 25.9071C902.457 27.6008 903.805 29.0018 905.506 29.0018C907.175 29.0018 908.555 27.6008 908.555 25.9071C908.555 24.2131 907.175 22.8123 905.506 22.8123ZM488.644 3.36405C490.313 3.36409 492.656 5.18858 492.656 6.4916C492.656 7.56651 491.532 8.08811 490.248 9.19565C488.355 10.857 485.53 13.5607 484.311 15.0591C484.022 15.4172 484.087 15.5149 484.504 15.3195C485.435 14.9286 486.879 14.3423 488.805 14.3423C493.041 14.3424 496.379 16.8506 496.379 21.1829C496.379 25.4829 492.367 28.7731 487.264 28.7731C483.605 28.7731 481.455 27.3072 481.455 24.8314C481.455 23.0724 482.963 21.77 484.921 21.7048C487.424 21.6723 489.318 23.3331 489.896 25.6784C491.918 24.7337 493.137 22.877 493.137 20.7922C493.137 17.7301 491.083 16.0691 488.066 16.0691C485.691 16.0691 483.605 17.3389 482.257 18.7721C481.198 19.9449 480.235 21.2813 479.464 22.2586C478.791 23.0725 478.31 23.3659 477.764 23.366C476.641 23.366 475.806 21.3135 477.154 19.815C478.759 18.0233 480.492 16.3292 482.739 13.7557C485.049 11.15 487.359 8.44644 488.29 6.94791C488.772 6.16609 488.74 5.84014 488.066 5.93787C486.622 6.13344 483.574 8.60857 482.065 8.60911C480.621 8.60911 479.369 6.65471 479.369 4.99344C479.369 4.34192 479.433 4.30857 479.979 4.60175C480.717 4.9926 481.423 5.25314 482.193 5.28571C483.092 5.31809 485.307 4.69962 486.462 4.21105C487.328 3.85273 487.906 3.36405 488.644 3.36405ZM427.468 11.1173H437.675V13.9188H427.468V25.9389H439.151V28.7085H410.425V25.9389H414.726V7.46883H417.551V25.9389H424.579V0.562578H427.468V11.1173ZM58.2994 21.672C57.6576 23.887 56.6303 26.7859 55.3787 28.6101L52.9389 27.3396C54.1905 25.6457 55.2821 22.8773 55.8919 20.6948L58.2994 21.672ZM251.046 20.4662C250.308 23.1373 249.153 26.4927 247.612 28.6101L245.141 27.2422C246.682 25.2876 247.901 22.1601 248.575 19.6191L251.046 20.4662ZM101.779 4.8304C108.422 4.83057 113.686 9.32559 113.686 15.7102C113.686 21.8996 110.091 26.9167 101.329 28.5455C100.655 28.6432 100.495 28.4479 101.136 28.1548C108.229 25.0601 110.283 20.5639 110.283 15.9707C110.283 10.1398 106.464 7.11002 101.553 6.97972C102.837 10.6607 101.81 15.6123 99.5955 19.7494C97.6378 23.5605 95.2954 25.5479 93.3377 25.5482C90.9306 25.5482 88.1054 21.8344 88.1054 17.2412C88.1056 10.7261 93.9155 4.8304 101.779 4.8304ZM269.597 19.2941C271.427 21.7047 273.385 24.9624 274.027 27.1776L271.363 28.3824C270.722 26.1674 268.956 22.8124 267.159 20.3041L269.597 19.2941ZM458.294 3.5927C458.68 3.3647 459.129 3.2664 459.803 3.36405C460.894 3.52693 462.499 4.37435 462.499 5.2539C462.499 6.06833 462.178 7.46896 461.665 8.9998C466.479 9.65137 469.624 12.844 469.624 17.6001C469.624 21.216 467.441 27.4047 456.497 28.3168C456.016 28.3493 455.984 27.959 456.401 27.8287C464.489 25.5158 466.639 20.6616 466.639 17.3714C466.639 13.7883 464.296 11.4106 460.959 10.8568C459.932 13.3 458.615 15.8731 457.171 18.0882C457.299 19.0003 457.492 19.2289 457.877 19.7176C458.359 20.3039 458.647 20.9227 458.262 21.3788C457.62 22.1276 456.273 21.8341 455.053 21.0199C453.128 23.3328 450.656 25.3851 448.506 25.3851C446.548 25.3851 445.617 22.9425 445.617 20.4343C445.617 17.5025 447.126 14.6024 449.629 12.4524C449.051 10.9541 448.602 9.74864 448.313 9.22746C447.896 8.44582 447.446 7.76134 446.772 7.10995C446.452 6.75207 446.484 6.68646 446.965 6.68645C447.703 6.68645 448.698 6.84956 449.597 7.27299C450.72 7.7942 451.138 8.44591 451.459 9.68377C451.587 10.2376 451.651 10.5959 451.748 10.9543C453.77 9.78168 456.177 9.03268 458.872 8.90238C459.161 7.7948 459.322 6.81704 459.354 6.16552C459.386 5.48153 459.096 4.96069 458.262 4.27667C457.877 3.95105 457.91 3.78807 458.294 3.5927ZM694.279 6.65464C695.595 6.6551 698.258 8.60936 698.258 9.74938C698.258 10.6287 696.91 11.2156 696.044 12.7139C692.064 19.5872 687.988 24.3107 680.157 27.9918C679.483 28.2849 679.387 27.8938 679.868 27.5354C686.961 22.2257 691.133 16.3621 693.155 10.8568C693.444 10.0752 693.187 9.97758 692.481 10.0426C690.781 10.2055 686.191 10.8889 684.425 11.345C682.917 11.7359 681.729 12.2247 680.67 12.2248C679.451 12.2248 677.525 10.0751 677.525 8.21841C677.525 7.43659 677.589 7.43657 678.231 7.79491C679.258 8.38109 680.093 8.70653 681.087 8.70653C682.981 8.7065 689.143 8.02255 691.807 7.59907C693.058 7.40361 693.605 6.65464 694.279 6.65464ZM220.786 3.69013C222.487 3.69018 224.22 4.6672 224.22 5.48156C224.22 6.32852 223.771 7.17565 222.616 10.4005C223.322 10.3029 223.963 10.2703 224.477 10.2703C226.755 10.2703 228.553 11.5081 228.553 14.9934C228.553 18.3487 228.04 21.7371 226.756 24.1802C225.504 26.5583 224.091 27.9918 222.358 27.9918C221.364 27.9916 220.882 27.5679 220.497 26.4608C220.24 25.7116 219.951 25.2227 219.502 24.4735C219.213 23.985 219.213 23.9521 219.759 24.1474C220.593 24.4731 221.363 24.6037 221.973 24.6037C222.551 24.6037 222.904 24.4405 223.418 23.8542C225.279 21.7042 226.082 17.5999 225.954 14.3751C225.889 12.6811 225.279 12.1602 223.77 12.1602C223.257 12.1602 222.615 12.2901 221.877 12.518C220.305 16.9158 218.219 22.1284 215.715 26.2003C215.106 27.1122 214.431 27.6655 213.629 27.6657C212.859 27.6657 212.249 26.9486 212.249 26.0691C212.249 25.19 212.666 24.7338 213.372 23.7895C215.811 20.6623 217.672 17.0786 219.052 13.4953C216.902 14.3421 214.752 15.2219 213.757 15.2221C212.41 15.2221 211.382 13.3977 211.382 11.7038C211.382 11.3456 211.446 11.3124 211.767 11.4752C212.409 11.7684 213.244 11.9969 213.982 11.9643C214.912 11.9317 217.448 11.3455 219.952 10.8568C220.529 8.96776 220.818 7.24129 220.818 6.52441C220.818 5.90548 220.658 5.70965 220.08 5.35133C219.47 4.99299 219.052 4.76447 219.052 4.43871C219.053 4.04799 220.016 3.69013 220.786 3.69013ZM78.1982 20.1411C79.4818 22.1931 81.247 24.9615 82.0494 26.6228L79.4822 27.9261C78.712 26.2323 77.0428 23.3659 75.727 21.2485L78.1982 20.1411ZM654.376 4.63456C655.723 4.6347 658.258 5.61171 658.259 6.55622C658.259 7.53349 657.745 7.99023 657.553 10.3031C657.521 10.7592 657.457 11.5408 657.425 12.4852C659.735 11.8338 662.174 11.1498 663.458 10.6938C664.228 10.3681 664.646 9.81418 665.48 9.814C666.892 9.814 669.332 11.8988 669.332 13.039C669.332 13.9185 668.273 14.1794 667.374 14.896C666.186 15.9059 663.779 17.5997 661.917 18.6747C661.372 19.0004 661.212 18.8373 661.565 18.3486C662.752 16.7851 663.811 15.0588 664.325 13.9188C664.742 13.0393 664.613 12.6481 663.715 12.9087C662.527 13.2345 659.638 14.147 657.328 14.9288C657.231 17.5674 657.168 20.5321 657.168 21.8351C657.168 24.2126 657.328 24.3433 660.377 24.3433C663.233 24.3433 665.256 23.5291 666.283 23.5291C667.406 23.5292 668.593 24.0172 668.593 24.9616C668.593 25.8085 668.176 26.2325 666.989 26.5582C665.737 26.8839 662.72 27.2421 660.891 27.2422C655.307 27.2422 654.568 25.9393 654.568 21.9653V15.8733C653.797 16.1338 652.899 16.4273 652.129 16.7531C650.685 17.3394 649.593 17.9251 648.823 17.9251C647.507 17.9251 645.742 16.1337 645.742 14.3095C645.742 13.8536 645.774 13.7887 646.191 13.9516C647.154 14.3424 647.828 14.4397 648.63 14.4397C649.561 14.4397 652.385 13.8532 654.6 13.2994C654.632 11.2476 654.696 9.29345 654.568 8.08818C654.503 7.33899 654.375 7.04555 653.509 6.52441C652.803 6.06834 652.385 5.83982 652.385 5.61179C652.386 5.22088 653.349 4.63456 654.376 4.63456ZM28.6757 5.22109H25.1134V11.8987H28.2261V14.5053H25.1134V22.1283L28.4827 20.9881L28.9646 23.6593C25.4983 24.8646 21.8068 26.1019 18.9183 27.0791L18.2767 24.213C19.4642 23.8873 20.9087 23.463 22.4492 22.9744V14.5053H18.9183V11.8987H22.4492V5.22109H18.6293V2.58266H28.6757V5.22109ZM852.274 23.6911C850.22 23.6911 848.647 24.343 848.647 25.4179C848.647 26.2974 849.738 26.7539 850.957 26.7541C852.851 26.7541 854.359 26.265 854.552 23.887C853.846 23.7567 853.076 23.6911 852.274 23.6911ZM484.6 23.366C483.701 23.3661 483.187 23.9195 483.187 24.5709C483.187 25.7437 484.504 26.3624 486.622 26.3624H486.975C486.782 24.4732 485.819 23.366 484.6 23.366ZM642.474 8.28303C642.923 7.82731 643.18 8.05529 642.891 8.5763C639.65 14.2445 632.492 20.8903 626.49 24.6365C625.239 25.4183 624.34 26.2321 623.217 26.2321C621.676 26.2321 619.269 24.1151 619.269 21.672C619.269 21.0205 619.334 20.9556 619.911 21.2813C620.553 21.6722 621.163 21.9978 621.805 22.2258C622.543 22.4864 623.635 22.4861 624.79 21.8997C630.824 18.7072 638.109 12.8435 642.474 8.28303ZM778.806 7.85953C784.294 7.85954 787.697 11.5405 787.697 15.6774C787.697 22.8115 780.443 25.8085 771.552 26.0691C770.879 26.1015 770.847 25.5811 771.456 25.4507C779.448 23.8546 784.391 20.4667 784.391 15.3851C784.391 12.7466 782.305 10.0101 778.999 10.0098C775.34 10.0098 771.071 13.104 769.498 14.1464C767.798 15.2865 766.065 16.4596 764.749 16.4598C763.273 16.4598 761.379 14.5705 761.411 12.4206C761.411 11.9646 761.539 11.9321 761.957 12.1602C762.662 12.5835 763.272 12.8441 764.01 12.8441C764.845 12.8441 765.84 12.5833 766.706 12.1274C769.883 10.5637 774.345 7.85953 778.806 7.85953ZM350.412 25.2221H366.619V20.2713H350.412V25.2221ZM66.5798 18.7721C68.0562 20.1078 70.014 22.0631 71.0089 23.2358L69.0187 24.9616C68.0558 23.7238 66.1306 21.7043 64.6865 20.2385L66.5798 18.7721ZM607.307 8.44607C608.558 8.44639 611.125 10.2377 611.126 11.3778C611.126 12.2572 610.034 13.0064 609.713 14.4069C609.521 15.3516 608.943 17.9259 608.494 20.1411C609.36 20.4017 610.195 20.9228 610.195 21.672C610.195 22.5514 609.745 23.1056 608.911 23.1056C608.237 23.1056 606.471 22.8441 604.995 22.8441C603.134 22.8442 599.892 23.2356 597.678 23.6265C596.33 23.8546 595.303 24.3433 594.372 24.3433C592.96 24.3432 591.388 22.7144 591.387 20.8578C591.387 20.2715 591.452 20.2707 591.965 20.4662C593.024 20.9547 593.826 21.0527 595.078 21.0527C596.33 21.0527 601.947 20.4012 604.931 20.0755C605.188 20.0429 605.413 20.0434 605.638 20.0108C606.087 17.5677 606.536 14.4075 606.696 12.3878C606.761 11.7689 606.472 11.7039 605.894 11.7038C604.835 11.7038 600.245 12.4527 597.999 12.9087C596.843 13.1693 595.848 13.4297 594.917 13.4297C593.569 13.4295 592.061 11.4754 592.061 9.97704C592.061 9.32557 592.061 9.32551 592.639 9.55353C593.73 10.0421 594.501 10.2375 595.945 10.2375C597.325 10.2374 602.492 9.55322 604.578 9.22746C605.99 9.032 606.601 8.44607 607.307 8.44607ZM286.923 18.121C286.281 19.0982 285.576 20.2712 284.902 21.3788C285.511 22.2256 286.089 22.9421 286.538 23.4307C286.891 23.8216 287.02 23.8217 287.084 23.1702C287.116 22.5186 286.987 20.0755 286.923 18.121ZM257.626 17.0463C259.937 18.219 262.826 20.1078 264.27 21.5736L262.312 23.4963C260.996 22.0955 258.14 20.0426 255.765 18.7721L257.626 17.0463ZM10.207 2.71289H2.60047V22.9097H0V0.236502H10.207V2.71289ZM450.431 14.5381C448.955 16.1343 448.121 17.9582 448.121 19.5217C448.121 21.1831 448.313 22.3232 449.084 22.3232C449.982 22.323 451.651 21.2481 453.191 19.3915C451.94 17.9908 451.202 16.4925 450.431 14.5381ZM100.013 7.04533C94.3963 7.63187 90.8342 12.4206 90.8342 16.7531C90.8342 19.489 92.2137 21.9965 93.4973 21.9971C94.4922 21.9971 95.8728 20.7273 97.2849 18.1866C99.339 14.6358 100.815 10.3355 100.013 7.04533ZM230.671 10.7266C229.901 10.2707 230.029 10.2052 230.799 10.2703C236.063 10.5961 238.92 14.114 238.92 18.0882C238.92 19.6844 238.277 20.7922 237.186 20.7922C236.095 20.7921 235.742 20.1729 235.389 17.958C234.939 14.8634 233.976 12.616 230.671 10.7266ZM324.986 15.7102C323.959 15.7102 323.285 16.7527 323.285 18.0882C323.285 19.6843 323.863 20.5962 325.082 20.5964C326.237 20.5964 326.848 19.8802 326.848 18.3168C326.848 16.6555 326.109 15.7102 324.986 15.7102ZM884.112 15.0591C883.085 15.0591 882.411 16.1014 882.411 17.437C882.411 19.0331 882.988 19.9451 884.208 19.9452C885.363 19.9452 885.973 19.2283 885.973 17.6647C885.973 16.0036 885.235 15.0591 884.112 15.0591ZM61.5728 5.2539H66.4838V7.66468H61.5728V9.32588C62.7603 10.0751 66.0013 12.4848 66.8041 13.1692L65.3281 15.4169C64.5256 14.57 62.9207 13.1042 61.5728 11.9315V19.5217H58.9733V11.508C57.6253 14.0163 55.9881 16.2642 54.3512 17.6975C53.9019 17.046 53.1316 16.1988 52.5539 15.7102C54.8005 14.0489 57.1113 10.8569 58.4914 7.66468H53.2601V5.2539H58.9733V0.562578H61.5728V5.2539ZM80.4127 19.1956H67.8316V2.19097H80.4127V19.1956ZM561.682 14.4069C561.682 15.4819 561.65 16.688 561.554 17.8933H568.872V12.8759H561.682V14.4069ZM571.664 17.8933H579.751V12.8759H571.664V17.8933ZM350.412 17.6001H366.619V12.6811H350.412V17.6001ZM458.198 10.7912C455.888 11.0192 453.898 11.8013 452.293 12.9087C452.871 14.5375 453.705 16.1341 454.7 17.3068C456.016 15.2871 457.236 12.8761 458.198 10.7912ZM399.776 11.4752C398.139 11.4756 395.443 13.6582 393.742 16.9479C395.475 16.1335 398.107 14.9933 400.129 13.8532C401.862 12.8759 401.284 11.4752 399.776 11.4752ZM750.287 11.4752C748.65 11.4752 745.954 13.6579 744.253 16.9479C745.986 16.1335 748.618 14.9933 750.64 13.8532C752.373 12.876 751.795 11.4755 750.287 11.4752ZM70.3664 16.9161H77.7809V14.1464H70.3664V16.9161ZM270.689 16.6546H248.255V1.8987H270.689V16.6546ZM250.855 14.2121H258.107V10.4005H250.855V14.2121ZM260.836 14.2121H267.961V10.4005H260.836V14.2121ZM550.128 6.32856C548.812 9.03232 547.079 12.225 545.699 14.2121L543.581 13.2994C544.897 11.2145 546.63 7.76156 547.528 5.31852L550.128 6.32856ZM32.6875 14.1464H37.149V10.3677H32.6875V14.1464ZM39.4918 14.1464H43.921V10.3677H39.4918V14.1464ZM533.856 6.62183C534.915 8.47863 535.91 10.9869 536.199 12.6483L533.856 13.365C533.567 11.7363 532.668 9.19547 531.641 7.20837L533.856 6.62183ZM619.911 6.94791C623.955 6.98055 628.192 8.83744 628.192 11.3132C628.191 12.453 627.453 13.2348 626.394 13.2348C625.881 13.2348 625.303 12.9416 624.854 12.3878C623.345 10.6288 621.773 8.96753 619.783 7.37141C619.43 7.07823 619.494 6.94791 619.911 6.94791ZM540.371 5.80763C541.141 7.697 541.816 10.1405 541.912 11.7367L539.441 12.2904C539.377 10.7267 538.766 8.18492 537.996 6.26295L540.371 5.80763ZM70.3664 12.0289H77.7809V9.29307H70.3664V12.0289ZM561.682 10.2047H568.872V5.41694H561.682V10.2047ZM571.664 10.2047H579.751V5.41694H571.664V10.2047ZM350.412 9.97704H366.619V5.15548H350.412V9.97704ZM232.083 5.09086C233.913 5.09086 235.325 5.61166 236.16 6.29575C236.898 6.97979 237.186 7.56639 237.186 8.41326C237.154 9.06478 236.673 9.52073 235.967 9.52073C235.389 9.48808 235.036 8.99953 234.33 7.98976C233.784 7.27317 232.95 6.26382 231.987 5.41694C231.666 5.1238 231.698 5.05832 232.083 5.09086ZM32.6875 8.08818H37.149V4.37409H32.6875V8.08818ZM39.4918 8.08818H43.921V4.37409H39.4918V8.08818ZM250.855 8.08818H258.107V4.34129H250.855V8.08818ZM260.836 8.08818H267.961V4.34129H260.836V8.08818ZM700.152 0.921461C702.045 0.921461 703.586 2.48492 703.586 4.4069C703.585 6.32874 702.045 7.89234 700.152 7.89234C698.226 7.8923 696.685 6.32872 696.685 4.4069C696.685 2.48495 698.226 0.921499 700.152 0.921461ZM70.3664 7.10995H77.7809V4.43871H70.3664V7.10995ZM235.004 2.58266C236.705 2.55008 238.278 2.843 239.176 3.52709C239.947 4.11344 240.268 4.70022 240.268 5.54717C240.267 6.26361 239.818 6.71926 239.112 6.71926C238.534 6.71906 238.278 6.26301 237.54 5.31852C236.962 4.56932 236.127 3.65747 234.908 2.84312C234.619 2.64768 234.619 2.61523 235.004 2.58266ZM700.152 2.41962C699.06 2.41966 698.194 3.33192 698.194 4.4069C698.194 5.51432 699.061 6.39414 700.152 6.39417C701.211 6.39417 702.077 5.51434 702.077 4.4069C702.077 3.3319 701.211 2.41962 700.152 2.41962ZM332.688 1.8987C334.486 1.8987 335.93 2.41973 336.733 3.13639C337.503 3.78789 337.792 4.37437 337.76 5.2539C337.76 5.90525 337.278 6.36113 336.572 6.32856C335.994 6.32841 335.641 5.80751 334.903 4.8304C334.389 4.08116 333.523 3.07075 332.592 2.22378C332.272 1.9308 332.304 1.89871 332.688 1.8987ZM549.197 3.10359C544.64 4.43916 537.675 5.18861 531.93 5.51436C531.834 4.86285 531.481 3.85299 531.192 3.26663C536.84 2.87571 543.581 2.06138 547.304 0.888655L549.197 3.10359ZM335.93 0.00884511C337.631 -0.0562922 339.172 0.237382 340.103 0.921461C340.873 1.50773 341.194 2.09395 341.194 2.97336C341.194 3.65741 340.712 4.11363 340.038 4.11363C339.429 4.11353 339.204 3.65726 338.466 2.71289C337.856 1.96369 337.054 1.0511 335.834 0.269308C335.514 0.0738522 335.513 0.00884511 335.93 0.00884511Z" fill="var(--fill-0, #131314)"/>
</svg>
