<svg preserveAspectRatio="none" width="100%" height="100%" overflow="visible" style="display: block;" viewBox="0 0 910 190" fill="none" xmlns="http://www.w3.org/2000/svg">
<path id="Union" d="M898.807 167.483C905.043 167.483 910 172.451 910 178.702C910 184.952 905.043 190 898.807 190C892.571 190 887.534 184.952 887.533 178.702C887.533 172.451 892.571 167.483 898.807 167.483ZM300.375 128.778H319.563V152.337H325.959V158.828H304.532C308.37 170.528 315.726 179.503 326.679 183.83C325 185.193 322.921 187.837 321.881 189.76C310.528 184.552 303.094 174.855 298.696 161.793C296.218 172.451 290.141 182.388 276.069 189.76C274.79 188.238 272.232 185.994 270.393 184.872C284.305 177.82 289.981 168.685 292.22 158.828H274.231V152.337H293.179C293.419 149.452 293.499 146.487 293.499 143.522V135.268H278.468V128.778H293.499V116.276H300.375V128.778ZM585.24 165.8C588.837 161.553 591.715 155.943 593.714 149.853H588.278V137.512H596.832C595.953 134.788 594.114 131.021 592.355 128.216L597.152 125.813C599.311 128.858 601.39 132.864 602.269 135.589L598.432 137.512H620.018L618.979 137.031C621.297 133.585 624.416 127.976 626.094 124.049L631.851 126.373C629.532 130.059 626.895 134.307 624.656 137.512H634.65V149.853H628.813V153.298H635.129V158.828H628.813V171.329H636.008V176.938H628.813V189.6H622.976V176.938H605.787V171.329H612.103V158.828H609.465V154.661C606.267 172.291 598.511 183.349 587.718 189.439C587.078 187.997 585.479 185.914 584.2 184.792C589.397 182.067 593.955 177.74 597.392 171.89C595.873 170.368 593.715 168.444 591.556 166.762C590.597 168.204 589.557 169.486 588.438 170.688C587.798 170.047 586.439 169.085 585.24 168.444V175.976H571.488V183.028H565.492V120.684H585.24V165.8ZM679.981 147.208H657.596V189.6H650.799V119.482H679.981V147.208ZM61.8819 189.279H54.8462V186.314H20.0668V189.52H13.3512V164.357H61.8819V189.279ZM111.211 121.325H131.519V116.196H138.314V121.325H156.943V126.774H138.314V131.261H144.551V136.87H156.783V142.32H144.551V151.857H115.929V142.32H103.296V156.023H154.385V161.553H124.723V166.842H157.183V172.21H130.559C137.675 177.259 148.548 181.106 158.702 182.869C157.183 184.311 155.344 187.036 154.305 188.799C143.511 186.395 132.238 181.105 124.723 174.294V189.52H117.847V174.855C110.092 180.946 98.4989 186.074 88.4251 188.558C87.4657 186.955 85.6266 184.471 84.1875 183.028C93.8615 181.105 105.055 177.018 112.33 172.21H85.8671V166.842H117.847V161.553H96.5002V142.32H86.1863V136.87H96.5002V131.342H103.296V136.87H115.929V130.701H122.404V136.87H137.755V132.784H131.519V126.774H111.211V132.464H104.415V126.774H86.1062V121.325H104.415V116.196H111.211V121.325ZM716.678 180.785C716.678 184.952 715.719 187.115 713.001 188.237C710.363 189.439 705.965 189.52 699.25 189.52C699.01 187.596 697.89 184.391 696.931 182.468C701.648 182.708 706.445 182.628 707.884 182.628C709.243 182.548 709.723 182.147 709.723 180.705V147.288H686.777V119.482H716.678V180.785ZM273.752 162.755C269.914 171.089 265.037 180.865 260.72 188.398L254.723 184.07C258.721 177.98 264.317 167.562 268.555 158.427L273.752 162.755ZM370.971 119.962C372.89 119.962 375.768 120.443 377.208 121.325C379.046 122.366 379.207 123.248 378.487 125.813C378.167 127.175 377.527 129.659 376.887 133.024C383.123 131.421 385.762 130.059 388.161 130.139C391.439 130.139 393.278 131.582 393.278 133.265C393.358 135.268 391.119 136.149 386.961 137.111C383.124 138.073 379.846 138.794 375.769 139.596C375.369 142.881 375.049 146.648 374.889 150.654C377.927 149.933 380.246 149.051 381.525 148.25C382.884 147.529 383.204 146.808 383.124 145.686C383.044 144.564 382.884 143.682 382.645 142.48C382.485 141.519 382.645 141.358 383.764 141.999C387.042 144.002 390.239 146.246 390.24 148.009C390.24 150.413 388.48 151.696 386.002 153.058C384.083 154.1 380.085 155.863 374.889 157.065C374.969 161.232 375.289 165.88 375.609 169.486C382.325 171.169 388.401 174.535 391.599 178.862C393.118 181.026 392.558 183.429 391.119 184.311C389.68 185.352 387.601 184.952 386.002 183.59C382.724 180.705 379.606 177.98 375.928 176.057C375.528 183.75 370.332 187.035 362.017 187.035C354.821 187.035 349.944 183.189 349.944 178.461C349.944 171.89 356.9 168.364 366.574 168.364C367.534 168.364 368.493 168.444 369.453 168.524C369.373 165.479 369.372 161.312 369.292 158.106C367.214 158.427 364.975 158.588 362.657 158.588C353.942 158.588 350.904 156.344 352.103 150.253C352.423 148.25 352.662 148.17 353.862 149.693C355.461 151.856 357.3 152.497 360.578 152.497C363.696 152.497 366.654 152.257 369.372 151.776C369.372 148.17 369.533 144.403 369.693 140.877C361.858 142.4 352.583 144.002 347.626 143.922C343.709 143.762 340.19 139.515 340.11 135.108C340.11 134.307 340.27 134.227 340.99 134.627C344.507 136.711 346.667 137.272 349.625 137.352C354.262 137.512 362.417 136.23 369.932 134.627C370.092 131.262 370.252 128.778 370.252 127.736C370.332 125.492 370.092 125.011 368.173 124.129C366.494 123.408 365.854 123.087 366.094 122.206C366.574 120.924 369.052 119.962 370.971 119.962ZM898.807 171.088C894.569 171.088 891.212 174.535 891.212 178.702C891.212 182.869 894.569 186.314 898.807 186.314C902.964 186.314 906.402 182.869 906.403 178.702C906.403 174.535 902.964 171.088 898.807 171.088ZM698.29 182.147H674.704V186.234H668.469V152.818H698.29V182.147ZM832.208 120.684C842.202 120.444 850.596 125.411 850.596 131.982C850.596 134.466 848.997 136.069 846.519 136.069C845.718 136.069 841.162 135.589 839.324 135.749C837.085 135.91 835.166 136.39 833.487 137.191C831.409 138.153 831.088 139.435 831.888 142.561C832.447 144.564 832.447 146.007 831.808 148.571C831.088 151.295 829.969 156.825 829.969 161.633C829.969 164.998 830.369 165.158 832.527 163.235C838.284 158.267 843.96 154.1 851.555 154.1C861.15 154.1 867.946 159.95 867.946 168.524C867.946 182.468 851.316 186.956 831.648 185.914C829.969 185.834 829.81 184.792 831.489 184.632C850.996 182.468 859.711 176.618 859.711 167.402C859.711 162.033 856.433 158.908 850.756 158.908C845.479 158.908 840.203 163.156 836.286 168.765C833.327 173.012 832.208 174.775 829.889 174.775C825.972 174.775 823.094 170.287 823.094 165.158C823.094 161.552 824.932 145.286 825.012 142.721C825.172 138.314 826.692 136.871 829.33 135.509C830.609 134.787 837.085 131.742 838.444 130.94C839.803 130.139 840.202 129.097 839.563 127.895C838.443 125.652 836.205 123.969 831.968 121.885C830.609 121.244 830.689 120.684 832.208 120.684ZM513.284 166.842C513.684 165.48 514.084 165.64 514.323 166.762C515.203 173.092 519.36 177.74 529.993 177.82C535.59 177.9 538.308 177.339 540.787 177.419C543.345 177.499 545.024 179.022 545.024 181.105C545.024 184.15 540.387 185.593 533.512 185.593C514.724 185.593 509.607 176.939 513.284 166.842ZM501.851 121.084C504.889 121.084 509.685 122.527 509.766 125.091C509.846 126.613 509.046 129.579 507.927 134.547C511.605 132.624 513.924 130.701 516.242 130.621C518.161 130.621 519.2 131.903 519.2 133.345C519.2 134.787 518.001 136.47 515.683 137.912C513.125 139.595 510.086 141.038 506.248 142.24C503.69 154.741 499.452 171.009 495.854 179.663C494.495 183.028 492.897 184.391 490.658 184.391C488.66 184.391 486.581 182.868 486.581 180.545C486.581 177.66 488.899 174.615 490.897 170.688C495.135 162.194 497.774 152.257 499.613 144.083C496.974 144.724 493.856 145.365 491.378 145.365C487.14 145.445 483.942 141.439 484.022 136.791C484.022 135.99 484.102 135.909 484.821 136.31C486.98 137.432 489.219 138.233 491.857 138.233C494.255 138.233 497.933 137.752 500.971 137.031C501.451 133.986 501.851 130.86 501.771 129.017C501.691 127.255 501.211 126.854 499.373 125.652C498.014 124.771 497.214 124.37 497.214 123.729C497.214 122.607 499.852 121.084 501.851 121.084ZM194.76 124.049C198.997 124.049 203.314 126.453 203.314 128.457C203.314 130.54 202.195 132.624 199.317 140.557C201.076 140.317 202.675 140.236 203.954 140.236C209.63 140.236 214.108 143.282 214.108 151.857C214.108 160.11 212.829 168.444 209.631 174.454C206.513 180.304 202.995 183.83 198.678 183.83C196.199 183.83 194.999 182.788 194.04 180.063C193.4 178.22 192.681 177.018 191.562 175.175C190.842 173.973 190.842 173.893 192.201 174.374C194.28 175.175 196.199 175.496 197.718 175.496C199.157 175.496 200.037 175.095 201.316 173.653C205.953 168.364 207.952 158.267 207.632 150.334C207.472 146.167 205.953 144.884 202.195 144.884C200.916 144.884 199.317 145.205 197.478 145.766C193.561 156.584 188.363 169.406 182.127 179.423C180.608 181.666 178.929 183.028 176.93 183.028C175.012 183.028 173.493 181.265 173.493 179.102C173.493 176.938 174.532 175.816 176.291 173.493C182.367 165.8 187.005 156.985 190.442 148.17C185.086 150.253 179.729 152.417 177.25 152.417C173.893 152.417 171.334 147.93 171.334 143.763C171.334 142.881 171.494 142.801 172.293 143.201C173.892 143.923 175.972 144.484 177.811 144.404C180.129 144.323 186.446 142.881 192.681 141.679C194.12 137.031 194.84 132.784 194.84 131.021C194.84 129.498 194.439 129.017 193 128.136C191.482 127.255 190.442 126.693 190.442 125.892C190.443 124.93 192.842 124.049 194.76 124.049ZM757.933 123.569C762.17 123.569 766.568 125.972 766.569 127.976C766.569 130.059 765.369 132.143 762.491 140.076C764.25 139.836 765.849 139.756 767.208 139.756C772.804 139.756 777.282 142.801 777.282 151.375C777.282 159.629 776.002 167.963 772.804 173.973C769.766 179.823 766.168 183.349 761.931 183.349C759.373 183.349 758.173 182.307 757.214 179.583C756.574 177.74 755.854 176.538 754.735 174.695C754.016 173.493 754.096 173.413 755.375 173.894C757.454 174.695 759.373 175.015 760.891 175.015C762.331 175.015 763.211 174.614 764.49 173.172C769.127 167.883 771.205 157.786 770.805 149.853C770.645 145.686 769.207 144.404 765.449 144.404C764.17 144.404 762.49 144.724 760.651 145.285C756.734 156.103 751.537 168.925 745.301 178.941C743.862 181.185 742.103 182.548 740.104 182.548C738.186 182.548 736.666 180.785 736.666 178.621C736.666 176.458 737.706 175.335 739.545 173.011C745.621 165.319 750.258 156.504 753.616 147.689C748.259 149.773 742.903 151.936 740.505 151.936C737.147 151.936 734.508 147.449 734.508 143.282C734.508 142.4 734.668 142.32 735.468 142.721C737.147 143.442 739.145 144.002 741.064 143.922C743.302 143.842 749.698 142.4 755.935 141.198C757.294 136.55 758.013 132.303 758.013 130.54C758.013 129.018 757.694 128.537 756.175 127.656C754.736 126.774 753.616 126.213 753.616 125.412C753.616 124.45 756.015 123.569 757.933 123.569ZM444.446 147.128C455.32 147.128 462.115 154.421 462.115 162.514C462.115 176.538 447.724 182.388 430.375 182.869C428.536 182.949 428.456 181.266 430.135 180.865C445.485 177.82 454.919 171.409 454.919 161.953C454.919 157.065 451.002 152.016 444.846 152.016C437.81 152.016 429.656 157.946 426.618 159.949C423.26 162.113 419.821 164.437 417.103 164.437C414.065 164.437 410.227 160.591 410.227 156.263C410.227 154.901 410.867 154.901 411.906 155.462C413.265 156.264 414.385 156.665 415.664 156.665C417.263 156.664 419.102 156.183 420.78 155.382C426.937 152.337 435.652 147.128 444.446 147.128ZM363.776 173.252C358.659 173.252 354.742 174.855 354.742 177.499C354.742 179.663 357.46 180.785 360.498 180.785C365.215 180.785 368.973 179.583 369.453 173.733C367.694 173.413 365.775 173.252 363.776 173.252ZM20.0668 180.464H54.8462V170.287H20.0668V180.464ZM674.704 176.938H691.894V169.966H674.704V176.938ZM617.38 171.329H622.976V158.828H617.38V171.329ZM571.488 170.046H579.243V158.988H571.488V170.046ZM596.832 157.065C596.033 159.068 595.073 160.992 594.034 162.835C596.033 164.197 598.192 165.8 599.87 167.242C601.23 164.197 602.349 160.751 603.229 157.065H596.832ZM219.385 141.358C217.466 140.237 217.786 140.076 219.705 140.236C232.816 141.038 239.932 149.693 239.932 159.469C239.932 163.396 238.333 166.12 235.615 166.12C232.897 166.12 232.017 164.597 231.137 159.148C230.018 151.535 227.619 146.006 219.385 141.358ZM782.559 140.877C780.72 139.755 780.959 139.596 782.878 139.756C796.07 140.557 803.186 149.211 803.186 158.988C803.186 162.914 801.586 165.64 798.788 165.64C796.07 165.64 795.191 164.117 794.391 158.668C793.192 151.055 790.794 145.525 782.559 140.877ZM674.704 164.758H691.894V158.106H674.704V164.758ZM60.7624 158.908H14.3906V153.379H60.7624V158.908ZM594.194 148.25L594.914 145.606L600.431 146.648C599.951 148.41 599.391 150.253 598.831 152.016H605.067L606.107 151.776L609.784 152.818L609.704 153.298H622.976V147.288H628.493V142.881H594.194V148.25ZM571.488 153.218H579.243V142.801H571.488V153.218ZM300.375 143.602C300.375 146.487 300.295 149.452 300.055 152.337H312.847V135.268H300.375V143.602ZM521.199 141.439C531.673 135.028 545.584 139.355 545.584 146.407C545.584 148.731 544.145 149.933 540.307 149.853C537.349 149.693 532.232 150.975 529.354 151.696C528.395 152.017 528.155 151.615 528.954 151.054C530.553 149.933 533.192 148.01 534.391 146.808C535.59 145.606 535.67 145.285 533.991 144.404C531.912 143.282 526.636 142.561 521.439 142.48C520.48 142.48 520.48 141.919 521.199 141.439ZM256.242 138.233C261.358 139.996 267.754 143.442 270.872 146.086L266.955 151.776C263.917 149.052 257.681 145.525 252.564 143.362L256.242 138.233ZM60.7624 148.009H14.3906V142.48H60.7624V148.009ZM122.404 147.529H137.755V142.32H122.404V147.529ZM693.253 142.079H709.723V135.589H693.253V142.079ZM657.596 141.999H673.586V135.589H657.596V141.999ZM222.902 127.495C227.459 127.495 230.977 128.777 233.056 130.46C234.895 132.143 235.615 133.586 235.615 135.669C235.535 137.272 234.335 138.393 232.577 138.393C231.138 138.313 230.258 137.111 228.499 134.627C227.14 132.864 225.061 130.38 222.663 128.296C221.864 127.575 221.943 127.415 222.902 127.495ZM611.144 124.771C612.903 127.976 614.742 132.143 615.301 134.788L609.944 137.271C609.385 134.467 607.706 130.219 606.027 126.934L611.144 124.771ZM73.3143 137.191H1.99877V131.261H73.3143V137.191ZM571.488 137.031H579.243V126.614H571.488V137.031ZM230.178 121.325C234.415 121.245 238.333 121.966 240.572 123.649C242.49 125.091 243.29 126.534 243.29 128.617C243.29 130.38 242.171 131.502 240.412 131.502C238.973 131.502 238.333 130.38 236.494 128.056C235.055 126.213 232.976 123.969 229.938 121.965C229.219 121.485 229.219 121.405 230.178 121.325ZM260.64 116.757C265.596 118.841 271.832 122.366 274.95 125.091L270.953 130.781C268.074 127.896 261.838 124.05 256.881 121.806L260.64 116.757ZM657.596 130.701H673.586V124.691H657.596V130.701ZM693.253 130.701H709.723V124.691H693.253V130.701ZM633.05 120.604C622.097 123.969 604.108 125.572 589.557 126.133C589.317 124.69 588.597 122.607 587.958 121.244C602.269 120.603 619.618 118.92 628.733 116.116L633.05 120.604ZM59.563 125.972H15.6701V120.443H59.563V125.972ZM152.386 64.4289C152.386 68.6759 151.347 70.7599 148.628 71.7215C145.75 72.8434 141.113 73.0029 133.678 72.9227C133.358 71.0796 132.318 68.1149 131.359 66.2719C136.635 66.5123 141.992 66.4323 143.511 66.4323C145.03 66.3522 145.59 65.8712 145.59 64.4289V49.3635H125.442V72.5227H118.487V49.3635H99.6184C98.3392 58.1782 95.5407 67.2331 89.5445 73.8041C88.5051 72.4418 85.7865 70.1985 84.2675 69.3171C92.9822 59.4604 93.7822 45.3565 93.7822 34.1376V5.52983H152.386V64.4289ZM287.663 37.3432C286.544 38.8658 285.344 40.3879 283.985 41.9105H307.491L308.77 41.6708L313.167 44.715C309.329 51.5264 303.653 56.8959 296.777 61.0629C305.012 64.2682 314.926 66.2717 326.119 67.073C324.76 68.6757 323.001 71.561 322.121 73.4842C309.329 72.2021 298.456 69.3967 289.502 64.829C279.748 69.3166 268.235 71.9618 256.402 73.5645C255.842 71.8816 254.243 68.9165 253.044 67.4741C263.757 66.2721 274.071 64.1879 282.865 60.9025C279.028 58.178 275.749 55.053 272.871 51.4471C268.954 54.0914 264.557 56.4959 259.52 58.6594C258.561 57.0568 256.562 54.7328 255.122 53.6109C267.515 48.9631 275.99 42.3113 280.387 35.9806L287.663 37.3432ZM655.597 55.0528C654.797 54.2514 655.277 53.5299 656.476 53.7703C665.271 55.5334 675.424 60.983 675.424 69.1566C675.424 71.8011 673.745 73.5644 671.187 73.5645C668.948 73.5645 667.749 72.5222 666.55 70.038C664.232 65.3902 661.673 60.5019 655.597 55.0528ZM17.0286 15.7062H25.2638V22.1976H17.0286V35.9004L24.5445 33.5771L25.4238 39.8269L17.0286 42.6324V65.6312C17.0285 69.237 16.3091 70.9997 14.1505 72.0414C12.1518 73.1631 9.03398 73.404 3.91751 73.404C3.75761 71.7212 2.87823 68.9161 1.99877 66.9928C5.35626 67.1531 8.314 67.1531 9.27359 67.073C10.153 67.073 10.633 66.7527 10.6331 65.6312V44.6358L1.67866 47.4403L0 40.7885L10.6331 37.7433V22.1976H1.19848V15.7062H10.6331V0H17.0286V15.7062ZM53.0865 39.2664H73.1542V45.3567H56.925C61.3223 52.6489 68.5974 59.7811 75.4731 63.3871C73.9541 64.5892 71.9557 66.9934 70.9164 68.5961C64.4403 64.5092 57.7236 57.4567 53.0865 49.924V72.8425H46.531V49.7636C41.4941 57.777 34.1386 64.8291 26.6233 68.916C25.6638 67.2332 23.5845 64.7495 22.0655 63.5476C29.9007 59.9415 37.6563 52.8894 42.4534 45.3567H26.7033V39.2664H46.531V30.6914H53.0865V39.2664ZM357.939 3.6859C359.778 3.52563 361.617 3.7669 363.616 4.56825C366.494 5.85044 368.972 8.01385 368.972 10.2575C368.972 12.421 367.853 14.4243 367.214 16.8282C366.814 18.2706 366.254 19.7939 365.854 21.5569C366.014 21.637 366.255 21.7967 366.494 21.9569C368.253 23.2391 368.573 25.0828 367.214 26.6054C366.334 27.6472 365.215 29.3296 364.095 31.0122C364.016 31.4129 364.015 31.894 363.935 32.2947C372.25 26.4449 379.446 23.3999 386.881 23.3998C398.634 23.3998 406.39 31.9738 406.39 41.7501C406.39 57.6168 391.439 65.5508 376.967 68.4357C374.969 68.9163 374.729 68.0348 376.568 67.2335C388.001 62.1048 397.914 54.8925 397.914 42.0709C397.914 32.8555 392.478 28.288 384.403 28.2879C377.687 28.2879 370.811 32.0538 363.855 37.8235C364.015 48.161 365.375 56.8963 365.375 62.5058C365.375 67.3135 363.376 71.0795 360.658 71.0798C358.34 71.0798 357.859 69.1568 357.3 66.4323C356.5 62.1852 354.421 58.2581 351.943 53.9308C349.864 57.2163 348.265 59.9415 347.865 60.5826C346.586 62.5857 345.307 63.6278 343.948 63.6278C342.189 63.6276 340.91 62.2647 340.75 60.0211C340.511 57.9377 341.549 56.335 343.228 54.1714C345.547 51.2064 353.623 40.7088 358.739 33.2563C358.819 31.6536 358.979 29.8101 359.219 27.8869C356.66 29.0889 352.183 31.3331 350.424 32.3749C348.665 33.3365 347.786 34.6188 346.507 34.6189C344.348 34.6189 341.15 31.2527 341.15 28.0473C341.15 26.6851 341.47 26.6047 342.669 26.8451C344.588 27.1655 345.548 27.0859 347.786 26.2845C350.425 25.403 356.261 22.9989 359.779 21.236C360.099 17.2295 360.338 13.4632 360.338 11.4597C360.338 8.73519 359.619 7.13202 357.54 5.04855C356.581 4.00688 356.66 3.76606 357.939 3.6859ZM580.443 6.97171C580.043 6.01012 580.443 5.6896 581.402 6.01013C585.56 7.53272 588.838 10.7383 590.277 14.1841C591.396 16.7484 591.236 18.5914 589.877 22.0372C586.599 30.3712 583.161 39.1061 583.161 47.2799C583.161 51.4467 584.52 51.8474 585.959 49.4437C587.558 46.7992 589.717 42.3111 590.916 39.8269C591.476 38.7052 592.275 39.1862 592.035 40.1478C590.916 44.7955 588.438 53.6902 588.438 57.9375C588.518 61.5436 590.437 64.4288 590.437 67.3137C590.437 69.3971 589.317 70.6797 586.838 70.6797C581.882 70.6792 577.565 59.2199 577.565 49.3635C577.565 39.5069 579.963 30.131 581.562 22.1976C582.282 18.3513 582.361 14.9056 581.961 12.5015C581.642 10.3379 581.003 8.41415 580.443 6.97171ZM454.919 7.05193C459.077 7.05193 464.913 11.5392 464.913 14.7446C464.913 17.389 462.115 18.6718 458.917 21.3964C454.2 25.4833 447.164 32.134 444.126 35.8202C443.407 36.7016 443.567 36.9427 444.607 36.4619C446.925 35.5002 450.523 34.0574 455.32 34.0574C465.873 34.0574 474.188 40.2278 474.188 50.8856C474.188 61.4634 464.194 69.5576 451.482 69.5577C442.368 69.5577 437.011 65.951 437.011 59.8607C437.011 55.5336 440.769 52.3283 445.646 52.168C451.882 52.0881 456.599 56.1748 458.038 61.9443C463.075 59.6204 466.113 55.0527 466.113 49.924C466.113 42.3916 460.996 38.3049 453.481 38.3048C447.565 38.3048 442.367 41.4297 439.009 44.9557C436.371 47.8405 433.973 51.1266 432.054 53.5307C430.375 55.5338 429.175 56.255 427.816 56.255C425.018 56.2545 422.94 51.2066 426.297 47.5205C430.295 43.1132 434.612 38.9461 440.209 32.6155C445.965 26.2047 451.722 19.5528 454.04 15.8666C455.239 13.9435 455.16 13.1426 453.481 13.3829C449.883 13.8637 442.288 19.9533 438.53 19.9536C434.932 19.9536 431.814 15.1456 431.814 11.0587C431.814 9.45605 431.974 9.3759 433.333 10.0971C435.172 11.0586 436.931 11.6994 438.849 11.7796C441.088 11.8598 446.605 10.3375 449.483 9.13552C451.642 8.25409 453.081 7.05206 454.919 7.05193ZM529.833 10.6576C546.383 10.6576 559.496 21.717 559.496 37.4234C559.496 52.649 550.54 64.9895 528.714 68.9962C527.035 69.2365 526.636 68.7558 528.235 68.0346C545.904 60.4218 551.021 49.3632 551.021 38.0642C551.021 23.7201 541.507 16.2674 529.274 15.9468C532.472 25.0021 529.914 37.183 524.397 47.3601C519.52 56.7359 513.683 61.6244 508.806 61.6244C502.81 61.624 495.774 52.4884 495.774 41.1896C495.774 25.1626 510.246 10.6578 529.833 10.6576ZM620.258 6.65086C622.816 6.65087 625.375 7.05193 626.894 7.9333C628.813 9.13528 628.973 10.2573 628.013 13.7028C627.613 15.3856 626.814 18.8323 626.335 22.5986C630.012 21.2364 632.331 19.313 634.809 19.3128C636.728 19.3128 637.927 20.5948 637.927 22.1174C637.927 23.5598 637.048 25.1627 634.969 26.2845C632.73 27.5667 629.532 28.8484 625.774 29.81C625.615 38.3043 626.814 45.4368 627.294 51.2867C632.091 52.6489 636.008 54.8126 638.726 57.1364C641.125 59.1396 641.925 60.8225 641.925 62.9059C641.925 64.8291 640.565 66.1115 638.726 66.1115C636.888 66.1112 635.289 64.4286 632.97 62.2651C631.291 60.6625 629.453 59.3 627.454 58.1782C626.734 64.7492 622.257 68.596 613.463 68.5961C606.347 68.5961 601.47 64.8296 601.47 59.7012C601.47 53.2905 607.946 50.0845 617.699 50.0844C618.738 50.0844 619.778 50.0845 620.737 50.1646C620.578 45.1161 620.178 35.9003 620.018 30.8518C616.5 31.4128 612.583 31.6536 609.864 31.3331C605.387 30.8522 602.509 28.2076 601.15 23.3196C600.75 22.0374 600.99 21.8774 602.109 22.5184C605.227 24.121 608.025 24.7616 610.744 24.9219C612.982 25.0822 616.58 24.7619 620.098 24.201C620.178 20.9956 620.258 17.3089 620.258 14.7446C620.258 12.6614 619.139 11.9401 617.22 11.0587C615.781 10.4177 615.381 10.0171 615.381 9.37616C615.381 8.25427 618.1 6.65086 620.258 6.65086ZM194.76 7.85308C198.997 7.85322 203.314 10.2576 203.314 12.2609C203.314 14.3444 202.195 16.4282 199.317 24.3614C201.076 24.121 202.675 24.0405 203.954 24.0405C209.63 24.0405 214.108 27.0862 214.108 35.6607C214.108 43.9144 212.829 52.2484 209.631 58.2584C206.513 64.1081 202.995 67.6344 198.678 67.6345C196.199 67.6345 194.999 66.592 194.04 63.8674C193.4 62.0246 192.681 60.8223 191.562 58.9793C190.842 57.7774 190.842 57.6974 192.201 58.1782C194.28 58.9795 196.199 59.3002 197.718 59.3002C199.157 59.3001 200.037 58.8994 201.316 57.4572C205.953 52.1683 207.952 42.071 207.632 34.1376C207.472 29.9706 205.953 28.688 202.195 28.688C200.916 28.688 199.317 29.0094 197.478 29.5704C193.561 40.3885 188.363 53.2099 182.127 63.2267C180.608 65.4704 178.929 66.8324 176.93 66.8324C175.012 66.8321 173.493 65.0693 173.493 62.9059C173.493 60.7424 174.532 59.6205 176.291 57.2968C182.367 49.6038 187.005 40.7887 190.442 31.9738C185.086 34.0573 179.729 36.2212 177.25 36.2212C173.893 36.2211 171.334 31.7338 171.334 27.567C171.334 26.6856 171.494 26.6049 172.293 27.0055C173.892 27.7267 175.972 28.2878 177.811 28.2077C180.129 28.1274 186.446 26.6853 192.681 25.4834C194.12 20.8356 194.84 16.5878 194.84 14.8248C194.84 13.3025 194.439 12.8215 193 11.9401C191.482 11.0587 190.442 10.4973 190.442 9.69603C190.443 8.73458 192.842 7.85308 194.76 7.85308ZM444.846 56.255C442.607 56.2551 441.328 57.6173 441.328 59.22C441.328 62.1048 444.606 63.6277 449.883 63.6278H450.762C450.282 58.9799 447.884 56.255 444.846 56.255ZM614.981 54.8923C609.785 54.8924 606.347 56.335 606.347 58.9793C606.347 61.3031 608.665 62.3453 611.783 62.3453C617.14 62.3453 620.098 60.8227 620.737 55.5341C618.899 55.1334 616.98 54.8923 614.981 54.8923ZM277.749 47.8404C280.787 51.767 284.865 55.0525 289.822 57.7771C295.178 55.0526 299.655 51.6071 303.013 47.4403H278.148L277.749 47.8404ZM358.579 43.3534C356.98 45.7574 355.221 48.6423 353.542 51.3669C355.061 53.4503 356.501 55.2134 357.62 56.4154C358.499 57.3768 358.819 57.3763 358.978 55.7737C359.058 54.1704 358.739 48.161 358.579 43.3534ZM525.437 16.1072C511.445 17.5497 502.571 29.3294 502.571 39.9873C502.571 46.7187 506.008 52.889 509.206 52.889C511.685 52.889 515.123 49.7643 518.641 43.5138C523.758 34.7791 527.435 24.2009 525.437 16.1072ZM219.385 25.1625C217.466 24.0406 217.786 23.8803 219.705 24.0405C232.816 24.842 239.932 33.4967 239.932 43.2731C239.932 47.1996 238.333 49.9239 235.615 49.924C232.897 49.924 232.017 48.4015 231.137 42.9523C230.018 35.3396 227.619 29.8103 219.385 25.1625ZM100.578 34.2178C100.578 36.8622 100.498 39.827 100.258 42.7919H118.487V30.4517H100.578V34.2178ZM125.442 42.7919H145.59V30.4517H125.442V42.7919ZM292.859 7.61342H324.36V14.1039H303.093V30.7716C303.093 33.977 302.533 35.6598 300.215 36.7015C297.896 37.7433 294.138 37.7433 289.021 37.7433C288.782 35.9004 287.902 33.4167 287.183 31.5737C290.78 31.734 294.058 31.7341 295.098 31.6539C296.217 31.6539 296.457 31.4132 296.457 30.6122V14.1039H286.383V14.3445C286.383 22.5983 285.184 33.0955 272.792 40.7083C271.753 39.1857 269.433 37.1024 267.914 35.9806C278.868 29.5698 279.987 20.7551 279.987 14.1039H254.643V7.61342H285.744V0H292.859V7.61342ZM312.047 17.3897C317.004 21.9573 323.081 28.3675 325.8 32.6948L320.042 36.3014C317.484 31.8941 311.648 25.243 306.691 20.5151L312.047 17.3897ZM272.632 19.5535C269.354 25.5635 263.677 31.8143 258.001 35.6607C256.721 34.3786 254.563 32.5354 253.204 31.5737C258.56 28.2882 263.757 22.7581 266.156 17.7898L272.632 19.5535ZM73.3943 14.3445C70.1164 20.9956 65.7989 28.8484 62.3611 33.7366L57.084 31.4935C60.362 26.3649 64.6802 17.87 66.9188 11.8598L73.3943 14.3445ZM32.8597 15.0654C35.498 19.633 37.9763 25.8034 38.6959 29.8902L32.8597 31.6539C32.1401 27.6473 29.9009 21.3965 27.3426 16.5083L32.8597 15.0654ZM49.089 13.0621C51.0078 17.7099 52.6876 23.7206 52.9274 27.6472L46.771 29.0089C46.6111 25.1624 45.0915 18.912 43.1727 14.1841L49.089 13.0621ZM100.578 23.8801H118.487V12.1005H100.578V23.8801ZM125.442 23.8801H145.59V12.1005H125.442V23.8801ZM222.902 11.2993C227.459 11.2993 230.977 12.5815 233.056 14.2643C234.895 15.9471 235.615 17.3897 235.615 19.4733C235.535 21.0757 234.335 22.1975 232.577 22.1976C231.138 22.1174 230.258 20.9155 228.499 18.4315C227.14 16.6685 225.061 14.184 222.663 12.1005C221.864 11.3794 221.943 11.2193 222.902 11.2993ZM230.178 5.12876C234.415 5.04863 238.333 5.77016 240.572 7.45299C242.49 8.89536 243.29 10.3379 243.29 12.4213C243.29 14.1841 242.171 15.3061 240.412 15.3061C238.973 15.3061 238.333 14.1838 236.494 11.8598C235.055 10.0168 232.976 7.77283 229.938 5.76949C229.219 5.28899 229.219 5.20888 230.178 5.12876ZM71.0754 6.4112C59.7224 9.69666 42.3729 11.5398 28.0618 12.3411C27.822 10.7384 26.9427 8.25372 26.2231 6.81129C40.2944 5.84967 57.0843 3.84644 66.3586 0.961582L71.0754 6.4112Z" fill="var(--fill-0, #131314)"/>
</svg>
