<svg preserveAspectRatio="none" width="100%" height="100%" overflow="visible" style="display: block;" viewBox="0 0 30 30" fill="none" xmlns="http://www.w3.org/2000/svg">
<g id="Frame">
<path id="Vector" d="M15 11.2812C16.7917 11.2812 18.6406 11.0104 20.5469 10.4688C22.4531 9.92708 23.5208 9.36458 23.75 8.78125C23.5208 8.17708 22.474 7.60417 20.6094 7.0625C18.7448 6.52083 16.875 6.25 15 6.25C13.1042 6.25 11.2448 6.51562 9.42188 7.04688C7.59896 7.57812 6.54167 8.15625 6.25 8.78125C6.5625 9.38542 7.65104 9.95312 9.51562 10.4844C11.3802 11.0156 13.2083 11.2812 15 11.2812ZM13.0938 23.6562C13.3021 24.1354 13.5417 24.5938 13.8125 25.0312C14.0833 25.4688 14.3958 25.875 14.75 26.25C13.2292 26.2292 11.7969 26.0885 10.4531 25.8281C9.10938 25.5677 7.94271 25.2135 6.95312 24.7656C5.96354 24.3177 5.18229 23.7917 4.60938 23.1875C4.03646 22.5833 3.75 21.9375 3.75 21.25V8.75C3.75 8.0625 4.04688 7.41667 4.64062 6.8125C5.23438 6.20833 6.04167 5.67708 7.0625 5.21875C8.08333 4.76042 9.27604 4.40104 10.6406 4.14062C12.0052 3.88021 13.4583 3.75 15 3.75C16.5417 3.75 17.9948 3.88021 19.3594 4.14062C20.724 4.40104 21.9167 4.76042 22.9375 5.21875C23.9583 5.67708 24.7656 6.20833 25.3594 6.8125C25.9531 7.41667 26.25 8.0625 26.25 8.75C26.25 9.4375 25.9531 10.0833 25.3594 10.6875C24.7656 11.2917 23.9583 11.8229 22.9375 12.2812C21.9167 12.7396 20.724 13.099 19.3594 13.3594C17.9948 13.6198 16.5417 13.75 15 13.75C13.2292 13.75 11.5938 13.5938 10.0938 13.2812C8.59375 12.9688 7.3125 12.5104 6.25 11.9062V15.0625C7.08333 15.8333 8.125 16.3958 9.375 16.75C10.625 17.1042 11.8854 17.3333 13.1562 17.4375C12.9896 17.75 12.8542 18.1094 12.75 18.5156C12.6458 18.9219 12.5729 19.375 12.5312 19.875C11.2812 19.7292 10.1198 19.5208 9.04688 19.25C7.97396 18.9792 7.04167 18.6146 6.25 18.1562V21.25C6.54167 21.7708 7.34375 22.2604 8.65625 22.7188C9.96875 23.1771 11.4479 23.4896 13.0938 23.6562ZM27 28.75L23.625 25.375C23.1667 25.6458 22.6875 25.8594 22.1875 26.0156C21.6875 26.1719 21.1667 26.25 20.625 26.25C19.0625 26.25 17.7344 25.7031 16.6406 24.6094C15.5469 23.5156 15 22.1875 15 20.625C15 19.0625 15.5469 17.7344 16.6406 16.6406C17.7344 15.5469 19.0625 15 20.625 15C22.1875 15 23.5156 15.5469 24.6094 16.6406C25.7031 17.7344 26.25 19.0625 26.25 20.625C26.25 21.1667 26.1719 21.6875 26.0156 22.1875C25.8594 22.6875 25.6458 23.1667 25.375 23.625L28.75 27L27 28.75ZM22.8438 22.8438C23.4479 22.2396 23.75 21.5 23.75 20.625C23.75 19.75 23.4479 19.0104 22.8438 18.4062C22.2396 17.8021 21.5 17.5 20.625 17.5C19.75 17.5 19.0104 17.8021 18.4062 18.4062C17.8021 19.0104 17.5 19.75 17.5 20.625C17.5 21.5 17.8021 22.2396 18.4062 22.8438C19.0104 23.4479 19.75 23.75 20.625 23.75C21.5 23.75 22.2396 23.4479 22.8438 22.8438Z" fill="var(--fill-0, white)"/>
</g>
</svg>
