<svg preserveAspectRatio="none" width="100%" height="100%" overflow="visible" style="display: block;" viewBox="0 0 30 30" fill="none" xmlns="http://www.w3.org/2000/svg">
<g id="Frame">
<path id="Vector" d="M22.5 26.25L20.75 24.5L22.7188 22.5H17.5V20H22.7188L20.75 18L22.5 16.25L27.5 21.25L22.5 26.25ZM3.75 26.25V7.5C3.75 6.8125 3.99479 6.22396 4.48438 5.73438C4.97396 5.24479 5.5625 5 6.25 5H21.25C21.9375 5 22.526 5.24479 23.0156 5.73438C23.5052 6.22396 23.75 6.8125 23.75 7.5V13.8438C23.5417 13.8021 23.3333 13.776 23.125 13.7656C22.9167 13.7552 22.7083 13.75 22.5 13.75C22.2917 13.75 22.0833 13.7552 21.875 13.7656C21.6667 13.776 21.4583 13.8021 21.25 13.8438V7.5H6.25V20H15.0938C15.0521 20.2083 15.026 20.4167 15.0156 20.625C15.0052 20.8333 15 21.0417 15 21.25C15 21.4583 15.0052 21.6667 15.0156 21.875C15.026 22.0833 15.0521 22.2917 15.0938 22.5H7.5L3.75 26.25Z" fill="var(--fill-0, white)"/>
</g>
</svg>
