<svg preserveAspectRatio="none" width="100%" height="100%" overflow="visible" style="display: block;" viewBox="0 0 95.812 18" fill="none" xmlns="http://www.w3.org/2000/svg">
<g id="Group 2">
<path id="Vector" d="M12.1883 2.72072V5.59207C12.1883 5.89646 12.1538 6.10671 12.0848 6.22282C12.0157 6.33893 11.8902 6.39856 11.7113 6.39856C11.6329 6.39856 11.5356 6.35148 11.4195 6.25734C10.5471 5.60462 9.61508 5.27513 8.61717 5.27513C7.33997 5.27513 6.28244 5.71446 5.44143 6.59312C4.70085 7.37136 4.33369 8.39438 4.33369 9.6653C4.33369 11.0366 4.80126 12.113 5.73327 12.9007C6.55859 13.6005 7.54395 13.9519 8.68621 13.9519C9.82847 13.9519 10.7542 13.6256 11.5481 12.9728C11.6423 12.8944 11.7396 12.8567 11.84 12.8567C11.9812 12.8567 12.0722 12.9101 12.1193 13.0199C12.1663 13.1297 12.1883 13.34 12.1883 13.6507V16.522C12.1883 16.7699 12.1758 16.9362 12.1538 17.0178C12.1318 17.0994 12.0753 17.1685 11.9906 17.2218C11.9435 17.2595 11.8619 17.3003 11.7458 17.3379C10.8986 17.6015 10.2741 17.7741 9.8724 17.8526C9.47073 17.931 9.02198 17.9687 8.52303 17.9687C7.0293 17.9687 5.60775 17.5984 4.26151 16.8578C2.83055 16.0733 1.74791 15.0283 1.01674 13.7291C0.338913 12.5304 0 11.1873 0 9.69982C0 8.04291 0.411089 6.54605 1.2364 5.2155C2.01465 3.95399 3.09415 2.96549 4.47177 2.25001C5.73327 1.58788 7.06068 1.25838 8.45399 1.25838C9.56801 1.25838 10.6852 1.48118 11.8055 1.92365C11.9843 1.98641 12.0942 2.05859 12.1318 2.14646C12.1695 2.23119 12.1914 2.42261 12.1914 2.71759L12.1883 2.72072Z" fill="var(--fill-0, #131314)"/>
<path id="Vector_2" d="M17.567 8.06801C18.0094 7.55336 18.4205 7.19249 18.794 6.98224C19.409 6.63077 20.1559 6.45817 21.0346 6.45817C22.3494 6.45817 23.3944 6.85671 24.1632 7.64751C24.6214 8.11508 24.9132 8.62345 25.0387 9.17575C25.1235 9.56487 25.1674 10.0513 25.1674 10.635V16.7417C25.1674 17.0931 25.1235 17.3128 25.0325 17.4007C24.9415 17.4917 24.7218 17.5356 24.3735 17.5356H22.1329C21.7814 17.5356 21.5618 17.4917 21.4739 17.4007C21.386 17.3097 21.3389 17.09 21.3389 16.7417V12.0471C21.3389 11.2155 21.2605 10.6475 21.1067 10.3431C20.9812 10.0858 20.7772 9.88182 20.4948 9.73119C20.2092 9.58057 19.9048 9.50212 19.5785 9.50212C18.9101 9.50212 18.3766 9.74375 17.9781 10.227C17.7051 10.5628 17.5701 11.0649 17.5701 11.7333V16.7417C17.5701 17.0931 17.5262 17.3128 17.4352 17.4007C17.3442 17.4917 17.1245 17.5356 16.7762 17.5356H14.5356C14.1841 17.5356 13.9645 17.4917 13.8766 17.4007C13.7887 17.3097 13.7417 17.09 13.7417 16.7417V0.793934C13.7417 0.442469 13.7856 0.222804 13.8766 0.134938C13.9676 0.0470713 14.1873 0 14.5356 0H16.7762C17.1276 0 17.3473 0.0439333 17.4352 0.134938C17.523 0.225942 17.5701 0.445607 17.5701 0.793934V8.06801H17.567Z" fill="var(--fill-0, #131314)"/>
<path id="Vector_3" d="M43.7134 10.6004L47.3567 7.06383C47.5576 6.86299 47.6862 6.75002 47.7365 6.73119C47.7867 6.71236 47.953 6.70295 48.2323 6.70295H51.43C51.725 6.70295 51.9321 6.73747 52.0482 6.8065C52.1643 6.87554 52.2239 7.00421 52.2239 7.19249C52.2239 7.32429 52.0952 7.51257 51.8379 7.75421L47.5419 11.7019L52.271 16.5C52.5189 16.7479 52.6444 16.9362 52.6444 17.0618C52.6444 17.2406 52.5848 17.3662 52.4687 17.4352C52.3526 17.5042 52.1423 17.5387 51.8379 17.5387H48.4394C48.1601 17.5387 47.9906 17.5262 47.9373 17.5042C47.8839 17.4823 47.7584 17.3693 47.5639 17.1653L43.7103 13.1266V16.7448C43.7103 17.0963 43.6664 17.3159 43.5754 17.4038C43.4844 17.4948 43.2647 17.5387 42.9164 17.5387H40.6758C40.3243 17.5387 40.1046 17.4948 40.0168 17.4038C39.9289 17.3128 39.8818 17.0931 39.8818 16.7448V0.797079C39.8818 0.445613 39.9258 0.225948 40.0168 0.138082C40.1078 0.0502154 40.3274 0.00314411 40.6758 0.00314411H42.9164C43.2678 0.00314411 43.4875 0.0470774 43.5754 0.138082C43.6632 0.229086 43.7103 0.448751 43.7103 0.797079V10.6036L43.7134 10.6004Z" fill="var(--fill-0, #131314)"/>
<path id="Vector_4" d="M57.7532 7.4937V12.841C57.7532 14.181 58.4028 14.8494 59.702 14.8494C61.0011 14.8494 61.6413 14.181 61.6413 12.841V7.4937C61.6413 7.14224 61.6852 6.92257 61.7762 6.83471C61.8641 6.7437 62.0869 6.69977 62.4352 6.69977H64.6758C65.0273 6.69977 65.2469 6.7437 65.3348 6.83471C65.4227 6.92571 65.4698 7.14537 65.4698 7.4937V13.5753C65.4698 14.8745 65.0681 15.8912 64.2679 16.6224C63.2574 17.5418 61.7354 18 59.702 18C57.6685 18 56.1371 17.5418 55.1266 16.6224C54.3264 15.8912 53.9247 14.8745 53.9247 13.5753V7.4937C53.9247 7.14224 53.9687 6.92257 54.0597 6.83471C54.1507 6.74684 54.3704 6.69977 54.7187 6.69977H56.9593C57.3107 6.69977 57.5304 6.7437 57.6183 6.83471C57.7061 6.92571 57.7532 7.14537 57.7532 7.4937Z" fill="var(--fill-0, #131314)"/>
<path id="Vector_5" d="M75.6937 7.76359L75.1446 8.81485C75.0285 9.04079 74.9375 9.18828 74.8716 9.25418C74.8057 9.32008 74.7147 9.3546 74.5954 9.3546C74.5421 9.3546 74.4668 9.33891 74.3726 9.30752C73.6885 9.08158 73.1393 8.96861 72.7251 8.96861C72.3737 8.96861 72.0881 9.04079 71.8653 9.18514C71.6425 9.32949 71.5327 9.51464 71.5327 9.74058C71.5327 9.98221 71.6393 10.1579 71.8527 10.2709C72.0661 10.3839 72.5306 10.5157 73.2492 10.6632C75.3517 11.0837 76.403 12.1538 76.403 13.8734C76.403 15.204 75.8726 16.2427 74.8151 16.9896C73.905 17.6266 72.722 17.9467 71.2659 17.9467C69.9103 17.9467 68.677 17.6454 67.5661 17.0492C67.246 16.8766 67.086 16.6977 67.086 16.5126C67.086 16.4184 67.1519 16.2427 67.2837 15.9885L67.927 14.7395C68.0431 14.5073 68.1372 14.3567 68.2063 14.2908C68.2753 14.2249 68.3726 14.1904 68.4981 14.1904C68.5766 14.1904 68.8496 14.3159 69.314 14.5638C69.587 14.7113 69.9291 14.8368 70.3465 14.9435C70.7638 15.0471 71.1153 15.1004 71.404 15.1004C71.7304 15.1004 72.0065 15.0188 72.2262 14.8557C72.449 14.6925 72.5588 14.4885 72.5588 14.25C72.5588 13.9927 72.449 13.7981 72.2324 13.6663C72.0159 13.5345 71.5797 13.3964 70.9239 13.2584C70.0138 13.0701 69.3297 12.8253 68.8684 12.5241C68.1216 12.0251 67.7481 11.272 67.7481 10.2584C67.7481 9.12238 68.1498 8.19037 68.95 7.46861C69.7816 6.70605 70.9866 6.32321 72.5588 6.32321C73.8046 6.32321 74.8119 6.48953 75.5839 6.8253C75.7847 6.91945 75.8883 7.05438 75.8883 7.23325C75.8883 7.34308 75.8224 7.52196 75.6906 7.76987L75.6937 7.76359Z" fill="var(--fill-0, #131314)"/>
<path id="Vector_6" d="M86.0211 16.3337C85.2052 17.3693 84.0912 17.8871 82.6822 17.8871C81.7722 17.8871 80.9029 17.658 80.0776 17.1967C79.1581 16.682 78.4458 15.9791 77.9406 15.0848C77.451 14.2124 77.2063 13.2176 77.2063 12.0973C77.2063 10.2521 77.8496 8.77721 79.133 7.67261C80.1529 6.79394 81.3234 6.35461 82.6477 6.35461C83.3475 6.35461 83.9688 6.46758 84.5086 6.69352C85.0483 6.91946 85.5536 7.27721 86.0211 7.76675V7.49687C86.0211 7.14541 86.0682 6.92574 86.1623 6.83787C86.2565 6.74687 86.4762 6.70294 86.8276 6.70294H89.0588C89.4103 6.70294 89.6299 6.74687 89.7178 6.83787C89.8057 6.92888 89.8527 7.14855 89.8527 7.49687V16.7448C89.8527 17.0963 89.8088 17.3159 89.7178 17.4038C89.6268 17.4917 89.4071 17.5387 89.0588 17.5387H86.8276C86.4762 17.5387 86.2565 17.4948 86.1623 17.4038C86.0682 17.3128 86.0211 17.0931 86.0211 16.7448V16.3369V16.3337ZM83.6613 9.65587C82.9772 9.65587 82.3935 9.8975 81.9102 10.3808C81.427 10.864 81.1853 11.4509 81.1853 12.1444C81.1853 12.7971 81.427 13.3714 81.9102 13.8609C82.3841 14.3442 82.9678 14.5858 83.6613 14.5858C84.3548 14.5858 84.9291 14.3442 85.4123 13.8609C85.8956 13.3776 86.1372 12.7971 86.1372 12.1224C86.1372 11.4477 85.8956 10.8483 85.4123 10.3839C84.9134 9.90064 84.3297 9.65901 83.6613 9.65901V9.65587Z" fill="var(--fill-0, #131314)"/>
<path id="Vector_7" d="M93.653 0.385989C94.2524 0.385989 94.7639 0.596239 95.1812 1.01674C95.6017 1.43725 95.812 1.94248 95.812 2.53558C95.812 3.12867 95.6017 3.64332 95.1812 4.06382C94.7607 4.48433 94.2555 4.69458 93.6624 4.69458C93.0693 4.69458 92.5452 4.48433 92.1341 4.06382C91.7136 3.63704 91.5034 3.11926 91.5034 2.51047C91.5034 1.90168 91.7168 1.43725 92.1404 1.01674C92.5641 0.596239 93.0693 0.385989 93.653 0.385989ZM95.5672 7.49375V16.7417C95.5672 17.0931 95.5233 17.3128 95.4323 17.4007C95.3413 17.4885 95.1216 17.5356 94.7733 17.5356H92.5327C92.1812 17.5356 91.9616 17.4917 91.8737 17.4007C91.7858 17.3097 91.7388 17.09 91.7388 16.7417V7.49375C91.7388 7.14228 91.7827 6.92262 91.8737 6.83475C91.9647 6.74688 92.1844 6.69981 92.5327 6.69981H94.7733C95.1247 6.69981 95.3444 6.74375 95.4323 6.83475C95.5201 6.92576 95.5672 7.14542 95.5672 7.49375Z" fill="var(--fill-0, #131314)"/>
<path id="Vector_8" fill-rule="evenodd" clip-rule="evenodd" d="M28.2364 7.98638C30.5052 5.71754 34.183 5.71754 36.4519 7.98638C38.7207 10.2552 38.7207 13.933 36.4519 16.2019C34.2364 18.4174 30.6778 18.4676 28.3996 16.3588L30.6182 14.1402C32.0617 12.6966 33.0376 13.2803 34.9613 14.9937C34.9801 15.0094 35.0021 15.022 35.0241 15.0314C35.0523 15.0408 35.0743 15.0439 35.0962 15.0439C35.1213 15.0439 35.1464 15.0377 35.1684 15.0282C35.1904 15.0188 35.2123 15.0063 35.2312 14.9874C35.2531 14.9623 35.2688 14.9404 35.2782 14.9184C35.2876 14.8996 35.2908 14.8713 35.2908 14.8462C35.2908 14.8243 35.2876 14.8023 35.2782 14.7803C35.2688 14.7521 35.2563 14.7333 35.2406 14.7176C33.0376 12.2448 33.0314 11.9498 35.2374 9.44558C35.2531 9.42675 35.2657 9.40793 35.2751 9.38282C35.2845 9.36086 35.2876 9.33889 35.2876 9.31378C35.2876 9.28554 35.2814 9.26043 35.2751 9.23847C35.2594 9.19767 35.2312 9.17257 35.1935 9.15688C35.1715 9.14747 35.1464 9.14433 35.1245 9.14433C35.0962 9.14433 35.0711 9.14747 35.0492 9.15688C35.0272 9.16629 35.0052 9.17884 34.9864 9.19454C32.4822 11.3975 32.1904 11.3943 29.7207 9.19454C29.6987 9.17571 29.6799 9.16629 29.6579 9.15688C29.6297 9.14747 29.6077 9.14433 29.5858 9.14433C29.5607 9.14433 29.5355 9.1506 29.5104 9.16002C29.4885 9.16943 29.4665 9.18198 29.4477 9.20081C29.4257 9.22592 29.41 9.24788 29.4006 9.26985C29.3912 9.28868 29.3881 9.31692 29.3881 9.34203C29.3881 9.36399 29.3912 9.38596 29.4006 9.40793C29.4132 9.43617 29.4257 9.45814 29.4414 9.47697C31.2646 11.523 31.7385 12.3734 30.295 13.8201L28.0763 16.0387C25.9675 13.7605 26.0178 10.2019 28.2332 7.98638H28.2364Z" fill="var(--fill-0, #1D46C4)"/>
</g>
</svg>
