<svg preserveAspectRatio="none" width="100%" height="100%" overflow="visible" style="display: block;" viewBox="0 0 49.9242 12.543" fill="none" xmlns="http://www.w3.org/2000/svg">
<g id="concept">
<path id="Vector" d="M46.9047 9.35177V3.92817H45.9244V2.33258H46.9047V0H48.9439V2.33258H49.9242V3.92817H48.9439V9.35177H46.9047Z" fill="var(--fill-0, #1D46C4)"/>
<path id="Vector_2" d="M39.9242 5.8314C39.9242 6.46583 40.0792 6.95953 40.3893 7.31252C40.7041 7.66551 41.1406 7.842 41.6987 7.842C42.2568 7.842 42.6908 7.66551 43.0009 7.31252C43.3157 6.95953 43.4731 6.46583 43.4731 5.8314C43.4731 5.19698 43.3133 4.69851 42.9937 4.33598C42.6789 3.96868 42.2425 3.78503 41.6844 3.78503C41.1453 3.78503 40.716 3.96868 40.3964 4.33598C40.0816 4.70328 39.9242 5.20175 39.9242 5.8314ZM38.0639 12.5429V2.33254H40.0172V3.49167C40.2843 3.0242 40.6111 2.67599 40.9975 2.44702C41.3886 2.21329 41.8418 2.09642 42.3569 2.09642C43.3539 2.09642 44.1338 2.42794 44.6967 3.09098C45.2595 3.74926 45.541 4.66989 45.541 5.85287C45.541 6.99292 45.2572 7.90878 44.6895 8.60044C44.1219 9.28734 43.3754 9.63079 42.45 9.63079C41.8919 9.63079 41.4172 9.52823 41.0261 9.32311C40.6397 9.11323 40.3082 8.78648 40.0315 8.34286C40.0554 8.51935 40.0721 8.71254 40.0816 8.92243C40.0959 9.12754 40.1031 9.36366 40.1031 9.63079V12.5429H38.0639Z" fill="var(--fill-0, #1D46C4)"/>
<path id="Vector_3" d="M34.9402 5.11589C34.883 4.67227 34.7208 4.33836 34.4537 4.11417C34.1913 3.8852 33.8312 3.77072 33.3732 3.77072C32.9153 3.77072 32.548 3.8852 32.2713 4.11417C31.9994 4.33836 31.8253 4.67227 31.749 5.11589H34.9402ZM36.958 6.34657H31.6846C31.7657 6.8522 31.9494 7.23143 32.2356 7.48424C32.5218 7.73229 32.9105 7.85631 33.4019 7.85631C33.7739 7.85631 34.0935 7.78476 34.3606 7.64166C34.6325 7.49855 34.8591 7.28151 35.0404 6.99054L36.6861 7.81338C36.3045 8.42872 35.8418 8.88665 35.298 9.18717C34.7542 9.48291 34.1078 9.63079 33.3589 9.63079C32.2236 9.63079 31.3245 9.29211 30.6614 8.61476C29.9984 7.9374 29.6669 7.02631 29.6669 5.88149C29.6669 4.7796 30.0127 3.87328 30.7044 3.16253C31.4008 2.45179 32.2904 2.09642 33.3732 2.09642C34.4894 2.09642 35.3719 2.43033 36.0206 3.09814C36.6694 3.76118 36.9937 4.6675 36.9937 5.81709C36.9937 5.8791 36.9914 5.94827 36.9866 6.02459C36.9818 6.09614 36.9723 6.20347 36.958 6.34657Z" fill="var(--fill-0, #1D46C4)"/>
<path id="Vector_4" d="M29.0045 9.14424C28.7279 9.31119 28.4369 9.43283 28.1316 9.50915C27.8263 9.59024 27.4924 9.63079 27.1299 9.63079C26.0232 9.63079 25.1217 9.28018 24.4253 8.57898C23.7288 7.87301 23.3806 6.95715 23.3806 5.8314C23.3806 4.72951 23.7312 3.83273 24.4324 3.14107C25.1336 2.44464 26.0423 2.09642 27.1585 2.09642C27.5306 2.09642 27.8645 2.13219 28.1602 2.20375C28.456 2.2753 28.7374 2.38739 29.0045 2.54004L28.9902 4.58641C28.7756 4.36698 28.5275 4.19765 28.2461 4.07839C27.9647 3.95914 27.6665 3.89951 27.3517 3.89951C26.7793 3.89951 26.3214 4.07601 25.9779 4.429C25.6345 4.77721 25.4628 5.23991 25.4628 5.81709C25.4628 6.40859 25.6369 6.88083 25.9851 7.23381C26.3381 7.58203 26.8127 7.75614 27.409 7.75614C27.7381 7.75614 28.0291 7.69651 28.2819 7.57726C28.5395 7.45801 28.7756 7.27197 28.9902 7.01916L29.0045 9.14424Z" fill="var(--fill-0, #1D46C4)"/>
<path id="Vector_5" d="M15.2127 9.35173V2.33254H17.209V3.43443C17.5763 2.9765 17.9698 2.64021 18.3896 2.42556C18.8141 2.20613 19.284 2.09642 19.7992 2.09642C20.3429 2.09642 20.7985 2.18944 21.1658 2.37547C21.5379 2.55673 21.8312 2.83578 22.0459 3.21262C22.1508 3.40819 22.2247 3.63 22.2677 3.87805C22.3154 4.12132 22.3392 4.50532 22.3392 5.03003V5.25184V9.35173H20.3V5.88149C20.3 5.0181 20.1998 4.44808 19.9995 4.17141C19.7992 3.89474 19.4557 3.75641 18.9692 3.75641C18.6877 3.75641 18.4278 3.81604 18.1892 3.93529C17.9555 4.04977 17.7599 4.21434 17.6025 4.429C17.4785 4.59595 17.3879 4.78675 17.3306 5.00141C17.2782 5.21606 17.2519 5.54281 17.2519 5.98166V6.26071V9.35173H15.2127Z" fill="var(--fill-0, #1D46C4)"/>
<path id="Vector_6" d="M12.0317 5.85287C12.0317 5.28046 11.8648 4.82491 11.5309 4.48624C11.197 4.14279 10.7486 3.97107 10.1857 3.97107C9.62283 3.97107 9.17683 4.1404 8.84769 4.47908C8.51855 4.81776 8.35399 5.27569 8.35399 5.85287C8.35399 6.42528 8.51855 6.88321 8.84769 7.22666C9.17683 7.5701 9.62283 7.74183 10.1857 7.74183C10.7438 7.74183 11.1898 7.5701 11.5237 7.22666C11.8624 6.88321 12.0317 6.42528 12.0317 5.85287ZM14.1067 5.86718C14.1067 6.94522 13.737 7.842 12.9977 8.55751C12.2631 9.27303 11.3305 9.63079 10.2 9.63079C9.05996 9.63079 8.12025 9.27303 7.38089 8.55751C6.64152 7.842 6.27184 6.94522 6.27184 5.86718C6.27184 4.79391 6.64391 3.89713 7.38804 3.17685C8.13218 2.45656 9.0695 2.09642 10.2 2.09642C11.3353 2.09642 12.2702 2.45179 13.0048 3.16253C13.7394 3.87328 14.1067 4.77483 14.1067 5.86718Z" fill="var(--fill-0, #1D46C4)"/>
<path id="Vector_7" d="M5.62394 9.14424C5.34728 9.31119 5.0563 9.43283 4.75102 9.50915C4.44573 9.59024 4.11182 9.63079 3.7493 9.63079C2.64263 9.63079 1.74109 9.28018 1.04465 8.57898C0.348217 7.87301 0 6.95715 0 5.8314C0 4.72951 0.350602 3.83273 1.05181 3.14107C1.75301 2.44464 2.66171 2.09642 3.77792 2.09642C4.14998 2.09642 4.48389 2.13219 4.77964 2.20375C5.07538 2.2753 5.35682 2.38739 5.62394 2.54004L5.60963 4.58641C5.39498 4.36698 5.14693 4.19765 4.8655 4.07839C4.58406 3.95914 4.28593 3.89951 3.97111 3.89951C3.39869 3.89951 2.94076 4.07601 2.59732 4.429C2.25387 4.77721 2.08215 5.23991 2.08215 5.81709C2.08215 6.40859 2.25626 6.88083 2.60447 7.23381C2.95746 7.58203 3.43208 7.75614 4.02835 7.75614C4.35748 7.75614 4.64846 7.69651 4.90127 7.57726C5.15886 7.45801 5.39498 7.27197 5.60963 7.01916L5.62394 9.14424Z" fill="var(--fill-0, #1D46C4)"/>
</g>
</svg>
