<svg preserveAspectRatio="none" width="100%" height="100%" overflow="visible" style="display: block;" viewBox="0 0 159.687 29.9998" fill="none" xmlns="http://www.w3.org/2000/svg">
<g id="Group 2">
<path id="Vector" d="M20.3139 4.53275V9.31837C20.3139 9.82569 20.2563 10.1761 20.1413 10.3696C20.0262 10.5631 19.817 10.6625 19.5189 10.6625C19.3881 10.6625 19.226 10.5841 19.0325 10.4272C17.5785 9.33928 16.0251 8.79012 14.362 8.79012C12.2333 8.79012 10.4707 9.52234 9.06906 10.9868C7.83475 12.2839 7.22282 13.9889 7.22282 16.1071C7.22282 18.3927 8.00211 20.1867 9.55546 21.4995C10.931 22.6658 12.5732 23.2516 14.477 23.2516C16.3808 23.2516 17.9237 22.7076 19.2469 21.6198C19.4038 21.489 19.5659 21.4262 19.7333 21.4262C19.9687 21.4262 20.1203 21.5151 20.1988 21.6982C20.2772 21.8813 20.3139 22.2317 20.3139 22.7495V27.5351C20.3139 27.9483 20.2929 28.2255 20.2563 28.3615C20.2197 28.4974 20.1256 28.6125 19.9844 28.7014C19.9059 28.7642 19.7699 28.8322 19.5764 28.8949C18.1643 29.3343 17.1235 29.6219 16.454 29.7527C15.7846 29.8834 15.0366 29.9462 14.2051 29.9462C11.7155 29.9462 9.34625 29.329 7.10253 28.0947C4.71758 26.7872 2.91319 25.0455 1.69456 22.8802C0.564855 20.8823 0 18.6438 0 16.1647C0 13.4031 0.685148 10.9083 2.06067 8.69075C3.35775 6.58821 5.15692 4.9407 7.45295 3.74822C9.55546 2.64465 11.7678 2.09549 14.09 2.09549C15.9467 2.09549 17.8086 2.46683 19.6758 3.20429C19.9739 3.30889 20.1569 3.42918 20.2197 3.57563C20.2825 3.71684 20.3191 4.03589 20.3191 4.52752L20.3139 4.53275Z" fill="var(--fill-0, #FDFDFE)"/>
<path id="Vector_2" d="M29.2783 13.4468C30.0158 12.589 30.7009 11.9876 31.3233 11.6372C32.3484 11.0514 33.5932 10.7637 35.0576 10.7637C37.249 10.7637 38.9907 11.4279 40.2721 12.746C41.0357 13.5252 41.5221 14.3725 41.7313 15.293C41.8725 15.9416 41.9457 16.7523 41.9457 17.7251V27.903C41.9457 28.4888 41.8725 28.8549 41.7208 29.0014C41.5691 29.153 41.203 29.2262 40.6225 29.2262H36.8882C36.3024 29.2262 35.9363 29.153 35.7898 29.0014C35.6434 28.8497 35.5649 28.4836 35.5649 27.903V20.0787C35.5649 18.6927 35.4342 17.746 35.1779 17.2387C34.9687 16.8098 34.6287 16.4698 34.158 16.2188C33.6821 15.9677 33.1748 15.837 32.6308 15.837C31.5168 15.837 30.6277 16.2397 29.9635 17.0452C29.5084 17.6048 29.2835 18.4416 29.2835 19.5556V27.903C29.2835 28.4888 29.2103 28.8549 29.0586 29.0014C28.907 29.153 28.5409 29.2262 27.9603 29.2262H24.226C23.6402 29.2262 23.2741 29.153 23.1277 29.0014C22.9812 28.8497 22.9028 28.4836 22.9028 27.903V1.32323C22.9028 0.737455 22.976 0.371343 23.1277 0.224898C23.2793 0.0784529 23.6455 0 24.226 0H27.9603C28.5461 0 28.9122 0.0732227 29.0586 0.224898C29.2051 0.376573 29.2835 0.742685 29.2835 1.32323V13.4468H29.2783Z" fill="var(--fill-0, #FDFDFE)"/>
<path id="Vector_3" d="M72.8557 17.6682L78.9279 11.7738C79.2627 11.439 79.4771 11.2507 79.5608 11.2194C79.6445 11.188 79.9217 11.1723 80.3871 11.1723H85.7166C86.2083 11.1723 86.5535 11.2298 86.747 11.3449C86.9405 11.46 87.0399 11.6744 87.0399 11.9882C87.0399 12.2079 86.8254 12.5217 86.3966 12.9244L79.2365 19.504L87.1183 27.5009C87.5315 27.9141 87.7407 28.2279 87.7407 28.4371C87.7407 28.7352 87.6413 28.9445 87.4478 29.0595C87.2543 29.1746 86.9039 29.2321 86.3966 29.2321H80.7323C80.2668 29.2321 79.9844 29.2112 79.8955 29.1746C79.8066 29.138 79.5974 28.9497 79.2731 28.6097L72.8505 21.8785V27.9089C72.8505 28.4947 72.7773 28.8608 72.6256 29.0072C72.4739 29.1589 72.1078 29.2321 71.5273 29.2321H67.793C67.2072 29.2321 66.8411 29.1589 66.6946 29.0072C66.5482 28.8555 66.4697 28.4894 66.4697 27.9089V1.32909C66.4697 0.743314 66.543 0.377202 66.6946 0.230757C66.8463 0.0843123 67.2124 0.00585946 67.793 0.00585946H71.5273C72.1131 0.00585946 72.4792 0.0790821 72.6256 0.230757C72.7721 0.382433 72.8505 0.748544 72.8505 1.32909V17.6734L72.8557 17.6682Z" fill="var(--fill-0, #FDFDFE)"/>
<path id="Vector_4" d="M96.2554 12.4892V21.4014C96.2554 23.6347 97.338 24.7487 99.5033 24.7487C101.669 24.7487 102.736 23.6347 102.736 21.4014V12.4892C102.736 11.9034 102.809 11.5373 102.96 11.3908C103.107 11.2392 103.478 11.1659 104.059 11.1659H107.793C108.379 11.1659 108.745 11.2392 108.891 11.3908C109.038 11.5425 109.116 11.9086 109.116 12.4892V22.6253C109.116 24.7905 108.447 26.4851 107.113 27.7038C105.429 29.2362 102.892 29.9998 99.5033 29.9998C96.1142 29.9998 93.5619 29.2362 91.8778 27.7038C90.5441 26.4851 89.8746 24.7905 89.8746 22.6253V12.4892C89.8746 11.9034 89.9478 11.5373 90.0995 11.3908C90.2512 11.2444 90.6173 11.1659 91.1978 11.1659H94.9322C95.5179 11.1659 95.884 11.2392 96.0305 11.3908C96.1769 11.5425 96.2554 11.9086 96.2554 12.4892Z" fill="var(--fill-0, #FDFDFE)"/>
<path id="Vector_5" d="M126.156 12.9389L125.241 14.691C125.047 15.0676 124.896 15.3134 124.786 15.4232C124.676 15.5331 124.524 15.5906 124.326 15.5906C124.237 15.5906 124.111 15.5644 123.954 15.5121C122.814 15.1356 121.899 14.9473 121.209 14.9473C120.623 14.9473 120.147 15.0676 119.775 15.3082C119.404 15.5487 119.221 15.8573 119.221 16.2339C119.221 16.6366 119.399 16.9295 119.755 17.1178C120.11 17.3061 120.884 17.5258 122.082 17.7716C125.586 18.4724 127.338 20.2559 127.338 23.122C127.338 25.3396 126.454 27.0708 124.692 28.3156C123.175 29.3773 121.203 29.9108 118.777 29.9108C116.517 29.9108 114.462 29.4087 112.61 28.415C112.077 28.1273 111.81 27.8292 111.81 27.5206C111.81 27.3637 111.92 27.0708 112.139 26.6472L113.212 24.5656C113.405 24.1785 113.562 23.9275 113.677 23.8177C113.792 23.7078 113.954 23.6503 114.164 23.6503C114.294 23.6503 114.749 23.8595 115.523 24.2727C115.978 24.5185 116.548 24.7277 117.244 24.9055C117.94 25.0781 118.525 25.167 119.007 25.167C119.551 25.167 120.011 25.0311 120.377 24.7591C120.748 24.4871 120.931 24.1472 120.931 23.7497C120.931 23.3208 120.748 22.9965 120.387 22.7769C120.027 22.5572 119.3 22.3271 118.206 22.0969C116.69 21.7831 115.55 21.3752 114.781 20.8731C113.536 20.0415 112.914 18.7862 112.914 17.0969C112.914 15.2035 113.583 13.6502 114.917 12.4472C116.303 11.1763 118.311 10.5382 120.931 10.5382C123.008 10.5382 124.687 10.8154 125.973 11.3751C126.308 11.532 126.481 11.7569 126.481 12.055C126.481 12.238 126.371 12.5362 126.151 12.9493L126.156 12.9389Z" fill="var(--fill-0, #FDFDFE)"/>
<path id="Vector_6" d="M143.369 27.2237C142.009 28.9496 140.152 29.8126 137.804 29.8126C136.287 29.8126 134.838 29.4308 133.463 28.662C131.93 27.8042 130.743 26.6327 129.901 25.1421C129.085 23.6881 128.677 22.0301 128.677 20.1629C128.677 17.0876 129.749 14.6294 131.888 12.7884C133.588 11.3239 135.539 10.5917 137.746 10.5917C138.912 10.5917 139.948 10.78 140.848 11.1566C141.747 11.5331 142.589 12.1294 143.369 12.9453V12.4955C143.369 11.9097 143.447 11.5436 143.604 11.3971C143.761 11.2455 144.127 11.1723 144.713 11.1723H148.431C149.017 11.1723 149.383 11.2455 149.53 11.3971C149.676 11.5488 149.755 11.9149 149.755 12.4955V27.9088C149.755 28.4946 149.681 28.8607 149.53 29.0072C149.378 29.1536 149.012 29.2321 148.431 29.2321H144.713C144.127 29.2321 143.761 29.1588 143.604 29.0072C143.447 28.8555 143.369 28.4894 143.369 27.9088V27.2289V27.2237ZM139.435 16.0938C138.295 16.0938 137.323 16.4966 136.517 17.302C135.712 18.1075 135.309 19.0855 135.309 20.2414C135.309 21.3293 135.712 22.2864 136.517 23.1023C137.307 23.9077 138.28 24.3105 139.435 24.3105C140.591 24.3105 141.548 23.9077 142.354 23.1023C143.159 22.2968 143.562 21.3293 143.562 20.2048C143.562 19.0803 143.159 18.0813 142.354 17.3073C141.522 16.5018 140.55 16.0991 139.435 16.0991V16.0938Z" fill="var(--fill-0, #FDFDFE)"/>
<path id="Vector_7" d="M156.088 0.642343C157.087 0.642343 157.94 0.992762 158.635 1.69361C159.336 2.39445 159.687 3.23651 159.687 4.22502C159.687 5.21352 159.336 6.07127 158.635 6.77212C157.935 7.47296 157.093 7.82338 156.104 7.82338C155.116 7.82338 154.242 7.47296 153.557 6.77212C152.856 6.06081 152.506 5.19783 152.506 4.18317C152.506 3.16852 152.861 2.39445 153.567 1.69361C154.273 0.992762 155.116 0.642343 156.088 0.642343ZM159.279 12.4887V27.902C159.279 28.4878 159.206 28.8539 159.054 29.0004C158.902 29.1468 158.536 29.2253 157.956 29.2253H154.221C153.635 29.2253 153.269 29.1521 153.123 29.0004C152.976 28.8487 152.898 28.4826 152.898 27.902V12.4887C152.898 11.9029 152.971 11.5368 153.123 11.3904C153.275 11.2439 153.641 11.1655 154.221 11.1655H157.956C158.541 11.1655 158.907 11.2387 159.054 11.3904C159.2 11.542 159.279 11.9082 159.279 12.4887Z" fill="var(--fill-0, #FDFDFE)"/>
<path id="Vector_8" fill-rule="evenodd" clip-rule="evenodd" d="M47.0607 13.3106C50.842 9.52916 56.9718 9.52916 60.7532 13.3106C64.5345 17.092 64.5345 23.2218 60.7532 27.0032C57.0607 30.6957 51.1297 30.7794 47.3326 27.2647L51.0303 23.567C53.4362 21.1611 55.0628 22.1339 58.2688 24.9896C58.3002 25.0157 58.3368 25.0366 58.3734 25.0523C58.4205 25.068 58.4571 25.0732 58.4937 25.0732C58.5356 25.0732 58.5774 25.0628 58.614 25.0471C58.6506 25.0314 58.6872 25.0105 58.7186 24.9791C58.7552 24.9373 58.7814 24.9007 58.7971 24.864C58.8128 24.8327 58.818 24.7856 58.818 24.7438C58.818 24.7071 58.8128 24.6705 58.7971 24.6339C58.7814 24.5868 58.7605 24.5555 58.7343 24.5293C55.0628 20.4079 55.0523 19.9163 58.7291 15.7426C58.7552 15.7112 58.7762 15.6798 58.7919 15.638C58.8075 15.6014 58.8128 15.5648 58.8128 15.5229C58.8128 15.4759 58.8023 15.434 58.7919 15.3974C58.7657 15.3294 58.7186 15.2876 58.6559 15.2614C58.6193 15.2457 58.5774 15.2405 58.5408 15.2405C58.4937 15.2405 58.4519 15.2457 58.4153 15.2614C58.3787 15.2771 58.3421 15.298 58.3107 15.3242C54.137 18.9958 53.6506 18.9905 49.5345 15.3242C49.4979 15.2928 49.4665 15.2771 49.4299 15.2614C49.3828 15.2457 49.3462 15.2405 49.3096 15.2405C49.2678 15.2405 49.2259 15.251 49.1841 15.2667C49.1475 15.2823 49.1109 15.3033 49.0795 15.3347C49.0429 15.3765 49.0167 15.4131 49.001 15.4497C48.9853 15.4811 48.9801 15.5282 48.9801 15.57C48.9801 15.6066 48.9853 15.6432 49.001 15.6798C49.022 15.7269 49.0429 15.7635 49.069 15.7949C52.1077 19.205 52.8975 20.6224 50.4916 23.0335L46.7939 26.7312C43.2793 22.9341 43.3629 17.0031 47.0554 13.3106H47.0607Z" fill="var(--fill-0, #FDFDFE)"/>
</g>
</svg>
